<svg version="1.1" id="Layer_1" xmlns="http://www.w3.org/2000/svg" xmlns:xlink="http://www.w3.org/1999/xlink" x="0px" y="0px"
	 width="100%" viewBox="0 0 116 122" enable-background="new 0 0 116 122" xml:space="preserve">
<path fill="#FEFFFF" opacity="1.000000" stroke="none" 
	d="
M81.000000,123.000000 
	C54.000000,123.000000 27.500000,123.000000 1.000000,123.000000 
	C1.000000,82.333336 1.000000,41.666668 1.000000,1.000000 
	C39.666668,1.000000 78.333336,1.000000 117.000000,1.000000 
	C117.000000,41.666668 117.000000,82.333336 117.000000,123.000000 
	C105.166664,123.000000 93.333336,123.000000 81.000000,123.000000 
M73.467850,19.000000 
	C68.313690,19.000622 63.158264,18.929447 58.005699,19.020432 
	C51.859398,19.128965 48.877235,22.081345 48.843636,28.302113 
	C48.765514,42.766548 48.757675,57.232113 48.852013,71.696365 
	C48.891014,77.675415 51.433327,80.106628 57.416027,80.165184 
	C65.063400,80.240044 72.712067,80.197449 80.360130,80.182999 
	C88.181091,80.168221 90.867416,77.556168 90.896744,69.793114 
	C90.940079,58.321133 90.908218,46.848866 90.908264,35.376717 
	C90.908325,20.194735 89.707741,19.000010 73.467850,19.000000 
M30.894440,57.161125 
	C34.676414,58.271641 36.053062,60.921261 36.020424,64.711838 
	C35.942970,73.707733 35.947037,82.705109 36.012222,91.701202 
	C36.065941,99.114891 40.019215,102.994156 47.497673,103.077286 
	C51.995388,103.127289 56.497459,102.976364 60.991459,103.114532 
	C65.319504,103.247612 68.798927,101.303047 70.384987,97.700142 
	C71.803459,94.477959 73.726921,93.033691 76.826118,91.890274 
	C80.161415,90.659744 80.664085,87.705719 79.592857,84.374641 
	C72.735443,84.374641 66.022362,84.374641 59.271873,84.374641 
	C58.148972,90.839447 62.976875,92.001457 67.392944,94.556145 
	C65.218292,96.447914 62.951790,98.319008 60.438324,98.750069 
	C56.877346,99.360794 53.134151,98.929893 49.469044,98.908081 
	C42.585281,98.867096 40.826260,97.157631 40.808407,90.444916 
	C40.786255,82.114822 40.889393,73.783455 40.776722,65.454819 
	C40.670967,57.637894 36.782516,52.944504 30.210396,53.027641 
	C27.967777,53.056007 25.741739,54.395168 23.508123,55.135410 
	C25.697939,55.773640 27.887753,56.411873 30.894440,57.161125 
z"/>
<path fill="#FFD700" opacity="1.000000" stroke="none" 
	d="
M73.959854,19.000000 
	C89.707741,19.000010 90.908325,20.194735 90.908264,35.376717 
	C90.908218,46.848866 90.940079,58.321133 90.896744,69.793114 
	C90.867416,77.556168 88.181091,80.168221 80.360130,80.182999 
	C72.712067,80.197449 65.063400,80.240044 57.416027,80.165184 
	C51.433327,80.106628 48.891014,77.675415 48.852013,71.696365 
	C48.757675,57.232113 48.765514,42.766548 48.843636,28.302113 
	C48.877235,22.081345 51.859398,19.128965 58.005699,19.020432 
	C63.158264,18.929447 68.313690,19.000622 73.959854,19.000000 
z"/>
<path fill="#FFE55F" opacity="1.000000" stroke="none" 
	d="
M30.486004,57.105614 
	C27.887753,56.411873 25.697939,55.773640 23.508123,55.135410 
	C25.741739,54.395168 27.967777,53.056007 30.210396,53.027641 
	C36.782516,52.944504 40.670967,57.637894 40.776722,65.454819 
	C40.889393,73.783455 40.786255,82.114822 40.808407,90.444916 
	C40.826260,97.157631 42.585281,98.867096 49.469044,98.908081 
	C53.134151,98.929893 56.877346,99.360794 60.438324,98.750069 
	C62.951790,98.319008 65.218292,96.447914 67.392944,94.556145 
	C62.976875,92.001457 58.148972,90.839447 59.271873,84.374641 
	C66.022362,84.374641 72.735443,84.374641 79.592857,84.374641 
	C80.664085,87.705719 80.161415,90.659744 76.826118,91.890274 
	C73.726921,93.033691 71.803459,94.477959 70.384987,97.700142 
	C68.798927,101.303047 65.319504,103.247612 60.991459,103.114532 
	C56.497459,102.976364 51.995388,103.127289 47.497673,103.077286 
	C40.019215,102.994156 36.065941,99.114891 36.012222,91.701202 
	C35.947037,82.705109 35.942970,73.707733 36.020424,64.711838 
	C36.053062,60.921261 34.676414,58.271641 30.486004,57.105614 
z"/>
</svg>