<svg version="1.1" id="Layer_1" xmlns="http://www.w3.org/2000/svg" xmlns:xlink="http://www.w3.org/1999/xlink" x="0px" y="0px"
	 width="100%" viewBox="0 0 104 118" enable-background="new 0 0 104 118" xml:space="preserve">
<path fill="#FFFFFE" opacity="1.000000" stroke="none" 
	d="
M68.000000,119.000000 
	C45.333332,119.000000 23.166666,119.000000 1.000000,119.000000 
	C1.000000,79.666664 1.000000,40.333332 1.000000,1.000000 
	C35.666668,1.000000 70.333336,1.000000 105.000000,1.000000 
	C105.000000,40.333332 105.000000,79.666664 105.000000,119.000000 
	C92.833336,119.000000 80.666664,119.000000 68.000000,119.000000 
M79.360954,15.962552 
	C77.820374,15.371731 76.289238,14.300256 74.737656,14.269796 
	C66.081543,14.099867 57.411243,13.938933 48.764530,14.267689 
	C43.451881,14.469679 40.783688,17.922920 40.752678,23.772648 
	C40.677647,37.928555 40.668587,52.085495 40.755436,66.241264 
	C40.794884,72.670586 43.862984,75.742393 50.252831,75.840393 
	C57.745583,75.955315 65.242516,75.945778 72.735649,75.844070 
	C79.562630,75.751411 82.805130,72.502213 82.844078,65.635399 
	C82.922470,51.812626 83.013145,37.986179 82.737099,24.168474 
	C82.685349,21.577915 80.946754,19.021053 79.360954,15.962552 
M24.245350,52.963348 
	C25.493055,55.457390 27.687252,57.903381 27.816759,60.454193 
	C28.263285,69.249191 27.935646,78.081207 28.006708,86.898300 
	C28.061228,93.662819 31.223715,97.591667 37.987602,98.284836 
	C43.237900,98.822884 48.595371,98.592171 53.888927,98.348923 
	C58.670872,98.129189 61.756199,95.450439 63.550182,90.935425 
	C64.064476,89.641060 65.731422,88.494087 67.132248,87.921692 
	C71.094650,86.302643 72.922127,83.841492 71.675858,79.517288 
	C64.694313,79.517288 57.993519,79.517288 51.176414,79.517288 
	C50.459492,85.759834 54.169331,87.706261 59.272137,88.536919 
	C58.212257,92.468384 55.786842,93.951538 52.260452,93.978180 
	C48.434135,94.007080 44.606968,94.026390 40.781040,93.979424 
	C34.631618,93.903954 32.748993,92.038879 32.721851,85.930611 
	C32.683414,77.279495 32.856598,68.624916 32.668770,59.977695 
	C32.478355,51.211342 26.559053,46.375801 18.154654,47.976498 
	C17.175379,48.163010 16.406494,49.454174 15.540070,50.233215 
	C16.384436,50.856823 17.149534,51.803093 18.090319,52.034203 
	C19.835405,52.462891 21.683111,52.473858 24.245350,52.963348 
z"/>
<path fill="#CCCC00" opacity="1.000000" stroke="none" 
	d="
M79.673775,16.205597 
	C80.946754,19.021053 82.685349,21.577915 82.737099,24.168474 
	C83.013145,37.986179 82.922470,51.812626 82.844078,65.635399 
	C82.805130,72.502213 79.562630,75.751411 72.735649,75.844070 
	C65.242516,75.945778 57.745583,75.955315 50.252831,75.840393 
	C43.862984,75.742393 40.794884,72.670586 40.755436,66.241264 
	C40.668587,52.085495 40.677647,37.928555 40.752678,23.772648 
	C40.783688,17.922920 43.451881,14.469679 48.764530,14.267689 
	C57.411243,13.938933 66.081543,14.099867 74.737656,14.269796 
	C76.289238,14.300256 77.820374,15.371731 79.673775,16.205597 
z"/>
<path fill="#CCCC00" opacity="1.000000" stroke="none" 
	d="
M23.866718,52.811058 
	C21.683111,52.473858 19.835405,52.462891 18.090319,52.034203 
	C17.149534,51.803093 16.384436,50.856823 15.540071,50.233215 
	C16.406494,49.454174 17.175379,48.163010 18.154654,47.976498 
	C26.559053,46.375801 32.478355,51.211342 32.668770,59.977695 
	C32.856598,68.624916 32.683414,77.279495 32.721851,85.930611 
	C32.748993,92.038879 34.631618,93.903954 40.781040,93.979424 
	C44.606968,94.026390 48.434135,94.007080 52.260452,93.978180 
	C55.786842,93.951538 58.212257,92.468384 59.272137,88.536919 
	C54.169331,87.706261 50.459492,85.759834 51.176414,79.517288 
	C57.993519,79.517288 64.694313,79.517288 71.675858,79.517288 
	C72.922127,83.841492 71.094650,86.302643 67.132248,87.921692 
	C65.731422,88.494087 64.064476,89.641060 63.550182,90.935425 
	C61.756199,95.450439 58.670872,98.129189 53.888927,98.348923 
	C48.595371,98.592171 43.237900,98.822884 37.987602,98.284836 
	C31.223715,97.591667 28.061228,93.662819 28.006708,86.898300 
	C27.935646,78.081207 28.263285,69.249191 27.816759,60.454193 
	C27.687252,57.903381 25.493055,55.457390 23.866718,52.811058 
z"/>
</svg>