<svg version="1.1" id="Layer_1" xmlns="http://www.w3.org/2000/svg" xmlns:xlink="http://www.w3.org/1999/xlink" x="0px" y="0px"
	 width="100%" viewBox="0 0 126 120" enable-background="new 0 0 126 120" xml:space="preserve">
<path fill="#FFFEFE" opacity="1.000000" stroke="none" 
	d="
M90.000000,121.000000 
	C60.000000,121.000000 30.500000,121.000000 1.000000,121.000000 
	C1.000000,81.000000 1.000000,41.000000 1.000000,1.000000 
	C43.000000,1.000000 85.000000,1.000000 127.000000,1.000000 
	C127.000000,41.000000 127.000000,81.000000 127.000000,121.000000 
	C114.833336,121.000000 102.666664,121.000000 90.000000,121.000000 
M52.716660,36.503494 
	C52.718723,46.977547 52.642765,57.452419 52.753033,67.925331 
	C52.816055,73.911316 55.753986,76.971924 61.548622,77.071098 
	C69.692688,77.210472 77.842522,77.207214 85.986755,77.073845 
	C91.287094,76.987038 94.759674,73.643105 94.812134,68.294540 
	C94.955612,53.665562 94.966957,39.033039 94.802681,24.404482 
	C94.743019,19.090700 91.488922,15.987164 86.355179,15.916876 
	C77.877785,15.800804 69.396500,15.802074 60.919086,15.917805 
	C55.908531,15.986207 53.011322,18.921921 52.783241,24.036373 
	C52.613037,27.853004 52.728142,31.682364 52.716660,36.503494 
M76.427765,80.867416 
	C72.023766,80.867416 67.619766,80.867416 63.236397,80.867416 
	C62.447239,87.489395 66.332542,88.983528 71.173759,89.645393 
	C70.520699,93.494514 68.468155,95.107567 64.987053,95.110329 
	C60.990337,95.113503 56.993587,95.124542 52.996918,95.111389 
	C46.158512,95.088890 44.741322,93.722595 44.713448,86.979904 
	C44.678341,78.487022 44.859509,69.990059 44.653240,61.502003 
	C44.452126,53.226212 40.066837,48.921844 32.281593,49.202469 
	C30.783379,49.256477 29.326126,50.446808 27.849979,51.112930 
	C29.287535,52.036701 30.659185,53.617283 32.174179,53.769302 
	C38.373875,54.391399 39.952667,55.848106 39.977795,62.174179 
	C40.012852,71.000114 39.928062,79.826828 40.006821,88.652206 
	C40.066319,95.319595 44.196751,99.587158 50.811462,99.856964 
	C54.302830,99.999359 57.804684,99.885994 61.301804,99.885712 
	C71.078903,99.884926 73.154572,98.474686 76.435936,89.607201 
	C83.289772,88.245544 84.608376,86.638847 83.248543,80.867241 
	C81.353004,80.867241 79.374443,80.867241 76.427765,80.867416 
z"/>
<path fill="#FFA500" opacity="1.000000" stroke="none" 
	d="
M52.716427,36.004776 
	C52.728142,31.682364 52.613037,27.853004 52.783241,24.036373 
	C53.011322,18.921921 55.908531,15.986207 60.919086,15.917805 
	C69.396500,15.802074 77.877785,15.800804 86.355179,15.916876 
	C91.488922,15.987164 94.743019,19.090700 94.802681,24.404482 
	C94.966957,39.033039 94.955612,53.665562 94.812134,68.294540 
	C94.759674,73.643105 91.287094,76.987038 85.986755,77.073845 
	C77.842522,77.207214 69.692688,77.210472 61.548622,77.071098 
	C55.753986,76.971924 52.816055,73.911316 52.753033,67.925331 
	C52.642765,57.452419 52.718723,46.977547 52.716427,36.004776 
z"/>
<path fill="#FFA500" opacity="1.000000" stroke="none" 
	d="
M76.911819,80.867325 
	C79.374443,80.867241 81.353004,80.867241 83.248543,80.867241 
	C84.608376,86.638847 83.289772,88.245544 76.435936,89.607201 
	C73.154572,98.474686 71.078903,99.884926 61.301804,99.885712 
	C57.804684,99.885994 54.302830,99.999359 50.811462,99.856964 
	C44.196751,99.587158 40.066319,95.319595 40.006821,88.652206 
	C39.928062,79.826828 40.012852,71.000114 39.977795,62.174179 
	C39.952667,55.848106 38.373875,54.391399 32.174179,53.769302 
	C30.659185,53.617283 29.287535,52.036701 27.849979,51.112930 
	C29.326126,50.446808 30.783379,49.256477 32.281593,49.202469 
	C40.066837,48.921844 44.452126,53.226212 44.653240,61.502003 
	C44.859509,69.990059 44.678341,78.487022 44.713448,86.979904 
	C44.741322,93.722595 46.158512,95.088890 52.996918,95.111389 
	C56.993587,95.124542 60.990337,95.113503 64.987053,95.110329 
	C68.468155,95.107567 70.520699,93.494514 71.173759,89.645393 
	C66.332542,88.983528 62.447239,87.489395 63.236397,80.867416 
	C67.619766,80.867416 72.023766,80.867416 76.911819,80.867325 
z"/>
</svg>