<?xml version="1.0" encoding="utf-8"?>

<!-- Uploaded to: SVG Repo, www.svgrepo.com, Generator: SVG Repo Mixer Tools -->
<svg version="1.1" id="Icons" xmlns="http://www.w3.org/2000/svg" xmlns:xlink="http://www.w3.org/1999/xlink" 
	 viewBox="0 0 32 32" xml:space="preserve">
<style type="text/css">
	.st0{fill:none;stroke:#000000;stroke-width:2;stroke-linecap:round;stroke-linejoin:round;stroke-miterlimit:10;}
</style>
<path class="st0" d="M16,23L16,23c-3.9,0-7-3.1-7-7V8c0-1.1,0.9-2,2-2h10c1.1,0,2,0.9,2,2v8C23,19.9,19.9,23,16,23z"/>
<path class="st0" d="M14,6V5c0-1.1,0.9-2,2-2h0c1.1,0,2,0.9,2,2v1"/>
<path class="st0" d="M16,23L16,23c0,3.3-2.7,6-6,6H9"/>
<path class="st0" d="M9,17h2.8c1.5,0,2.9-0.3,4.2-1l0,0c1.3-0.7,2.8-1,4.2-1H23"/>
</svg>