<svg version="1.1" id="Layer_1" xmlns="http://www.w3.org/2000/svg" xmlns:xlink="http://www.w3.org/1999/xlink" x="0px" y="0px"
	 width="100%" viewBox="0 0 164 158" enable-background="new 0 0 164 158" xml:space="preserve">
<path fill="#FFFFFF" opacity="1.000000" stroke="none" 
	d="
M104.000000,159.000000 
	C69.333336,159.000000 35.166676,159.000000 1.000009,159.000000 
	C1.000006,106.333344 1.000006,53.666687 1.000003,1.000023 
	C55.666653,1.000015 110.333305,1.000015 164.999969,1.000008 
	C164.999969,53.666641 164.999969,106.333282 164.999985,158.999969 
	C144.833328,159.000000 124.666664,159.000000 104.000000,159.000000 
M101.234421,41.478184 
	C101.588242,43.190113 101.942062,44.902046 102.295883,46.613976 
	C100.585327,46.051571 98.455353,45.933968 97.269142,44.815472 
	C95.746513,43.379768 94.982315,41.139732 93.891365,39.246223 
	C93.336212,39.795506 92.781052,40.344788 92.225899,40.894070 
	C90.270912,42.821594 88.315926,44.749123 85.631294,47.396046 
	C87.450958,48.873787 89.600197,50.089279 90.949562,51.900635 
	C91.854561,53.115509 91.625504,55.175198 91.903870,56.856880 
	C90.362335,56.528622 88.315170,56.700489 87.388725,55.763844 
	C85.671364,54.027569 84.608986,51.643440 83.273849,49.529102 
	C82.907364,50.259342 82.540886,50.989582 82.174408,51.719822 
	C80.011780,53.440784 77.849152,55.161747 74.677834,57.685406 
	C77.347710,59.828587 79.649353,61.299713 81.396065,63.264240 
	C82.091400,64.046280 81.558907,65.920021 81.585381,67.296768 
	C80.250755,67.184502 78.411499,67.583939 77.678780,66.861336 
	C75.702850,64.912689 74.198456,62.485905 72.506927,60.248875 
	C72.174225,60.703426 71.841515,61.157974 71.508812,61.612522 
	C69.304527,63.572262 67.100243,65.532005 64.011032,68.278503 
	C66.217575,70.091949 68.336479,71.315170 69.679245,73.116837 
	C70.593399,74.343422 70.421349,76.379532 70.735001,78.053658 
	C69.204086,77.671204 67.177292,77.765915 66.250183,76.802437 
	C64.557632,75.043495 63.516254,72.657959 62.232689,70.581413 
	C39.888500,92.136467 43.074257,86.468468 46.142952,108.035088 
	C46.236275,108.690971 46.695801,109.397202 46.548294,109.967018 
	C45.936058,112.332008 45.783386,115.197144 44.318394,116.887611 
	C40.183140,121.659363 35.454571,125.913582 31.022276,130.433014 
	C29.347446,132.140762 26.561211,133.937988 29.130217,136.620407 
	C32.028309,139.646439 33.778484,136.397141 35.634239,134.738983 
	C37.122597,133.409088 38.774120,132.122864 39.842503,130.484253 
	C47.102165,119.349991 56.967850,117.469765 68.950119,121.604965 
	C73.123428,123.045212 77.367844,121.911346 80.545029,118.759003 
	C97.100868,102.332626 113.653053,85.899811 129.979477,69.246651 
	C134.749924,64.380730 134.161652,57.688305 129.405304,52.663395 
	C128.203903,51.394150 127.025879,50.102757 126.055519,49.056946 
	C128.810394,46.057079 131.151642,43.507618 134.649673,39.698505 
	C137.720749,43.669350 140.539764,47.314289 143.616882,51.292938 
	C146.610596,47.566395 146.595184,44.993454 144.308273,42.662811 
	C137.424805,35.647713 130.611908,28.543663 123.362190,21.922440 
	C121.691589,20.396667 118.386169,20.660902 115.833069,20.101398 
	C115.327103,21.005306 114.821136,21.909212 114.315178,22.813120 
	C116.226730,24.138546 118.108551,25.509712 120.057922,26.776976 
	C122.150131,28.137093 124.305817,29.399551 126.433807,30.704630 
	C123.819931,34.140465 122.358849,35.255951 120.979218,36.464424 
	C119.657562,37.622108 118.420502,38.876369 117.195686,40.041183 
	C107.093170,31.378479 102.266617,30.583408 96.641975,36.691113 
	C97.984665,38.094330 99.346542,39.517605 101.234421,41.478184 
z"/>
<path fill="#FF69B4" opacity="1.000000" stroke="none" 
	d="
M100.971420,41.209530 
	C99.346542,39.517605 97.984665,38.094330 96.641975,36.691113 
	C102.266617,30.583408 107.093170,31.378479 117.195686,40.041183 
	C118.420502,38.876369 119.657562,37.622108 120.979218,36.464424 
	C122.358849,35.255951 123.819931,34.140465 126.433807,30.704630 
	C124.305817,29.399551 122.150131,28.137093 120.057922,26.776976 
	C118.108551,25.509712 116.226730,24.138546 114.315178,22.813120 
	C114.821136,21.909212 115.327103,21.005306 115.833069,20.101398 
	C118.386169,20.660902 121.691589,20.396667 123.362190,21.922440 
	C130.611908,28.543663 137.424805,35.647713 144.308273,42.662811 
	C146.595184,44.993454 146.610596,47.566395 143.616882,51.292938 
	C140.539764,47.314289 137.720749,43.669350 134.649673,39.698505 
	C131.151642,43.507618 128.810394,46.057079 126.055519,49.056946 
	C127.025879,50.102757 128.203903,51.394150 129.405304,52.663395 
	C134.161652,57.688305 134.749924,64.380730 129.979477,69.246651 
	C113.653053,85.899811 97.100868,102.332626 80.545029,118.759003 
	C77.367844,121.911346 73.123428,123.045212 68.950119,121.604965 
	C56.967850,117.469765 47.102165,119.349991 39.842503,130.484253 
	C38.774120,132.122864 37.122597,133.409088 35.634239,134.738983 
	C33.778484,136.397141 32.028309,139.646439 29.130217,136.620407 
	C26.561211,133.937988 29.347446,132.140762 31.022276,130.433014 
	C35.454571,125.913582 40.183140,121.659363 44.318394,116.887611 
	C45.783386,115.197144 45.936058,112.332008 46.548294,109.967018 
	C46.695801,109.397202 46.236275,108.690971 46.142952,108.035088 
	C43.074257,86.468468 39.888500,92.136467 62.232689,70.581413 
	C63.516254,72.657959 64.557632,75.043495 66.250183,76.802437 
	C67.177292,77.765915 69.204086,77.671204 70.735001,78.053658 
	C70.421349,76.379532 70.593399,74.343422 69.679245,73.116837 
	C68.336479,71.315170 66.217575,70.091949 64.011032,68.278503 
	C67.100243,65.532005 69.304527,63.572262 71.508812,61.612522 
	C71.841515,61.157974 72.174225,60.703426 72.506927,60.248875 
	C74.198456,62.485905 75.702850,64.912689 77.678780,66.861336 
	C78.411499,67.583939 80.250755,67.184502 81.585381,67.296768 
	C81.558907,65.920021 82.091400,64.046280 81.396065,63.264240 
	C79.649353,61.299713 77.347710,59.828587 74.677834,57.685406 
	C77.849152,55.161747 80.011780,53.440784 82.174408,51.719822 
	C82.540886,50.989582 82.907364,50.259342 83.273849,49.529102 
	C84.608986,51.643440 85.671364,54.027569 87.388725,55.763844 
	C88.315170,56.700489 90.362335,56.528622 91.903870,56.856880 
	C91.625504,55.175198 91.854561,53.115509 90.949562,51.900635 
	C89.600197,50.089279 87.450958,48.873787 85.631294,47.396046 
	C88.315926,44.749123 90.270912,42.821594 92.225899,40.894070 
	C92.781052,40.344788 93.336212,39.795506 93.891365,39.246223 
	C94.982315,41.139732 95.746513,43.379768 97.269142,44.815472 
	C98.455353,45.933968 100.585327,46.051571 102.295883,46.613976 
	C101.942062,44.902046 101.588242,43.190113 100.971420,41.209530 
z"/>
</svg>