<svg version="1.1" id="Layer_1" xmlns="http://www.w3.org/2000/svg" xmlns:xlink="http://www.w3.org/1999/xlink" x="0px" y="0px"
	 width="100%" viewBox="0 0 110 128" enable-background="new 0 0 110 128" xml:space="preserve">
<path fill="#FEFFFF" opacity="1.000000" stroke="none" 
	d="
M58.000000,129.000000 
	C38.666668,129.000000 19.833334,129.000000 1.000000,129.000000 
	C1.000000,86.333336 1.000000,43.666668 1.000000,1.000000 
	C37.666668,1.000000 74.333336,1.000000 111.000000,1.000000 
	C111.000000,43.666668 111.000000,86.333336 111.000000,129.000000 
	C93.500000,129.000000 76.000000,129.000000 58.000000,129.000000 
M45.503708,64.909554 
	C58.919113,64.909554 72.334518,64.909554 86.083389,64.909554 
	C86.083389,56.250702 86.139236,48.433746 86.070274,40.617893 
	C85.967155,28.930647 78.145805,18.704145 66.598396,15.017886 
	C55.369770,11.433391 42.532124,15.543959 35.646648,24.477406 
	C26.092394,36.873413 31.412296,50.981621 29.696903,64.909386 
	C35.251232,64.909386 39.878342,64.909386 45.503708,64.909554 
M30.686380,94.562263 
	C34.321983,107.488625 43.315052,114.501808 56.219719,115.520897 
	C67.460129,116.408577 76.626579,111.439880 82.513481,101.548546 
	C88.360695,91.723907 85.481819,80.976959 86.067833,70.101807 
	C67.678780,70.101807 50.072353,70.032661 32.469955,70.266479 
	C31.365311,70.281151 29.351103,72.672348 29.362062,73.944099 
	C29.419092,80.561523 29.995584,87.174484 30.686380,94.562263 
z"/>
<path fill="#C0C0C0" opacity="1.000000" stroke="none" 
	d="
M45.004578,64.909470 
	C39.878342,64.909386 35.251232,64.909386 29.696903,64.909386 
	C31.412296,50.981621 26.092394,36.873413 35.646648,24.477406 
	C42.532124,15.543959 55.369770,11.433391 66.598396,15.017886 
	C78.145805,18.704145 85.967155,28.930647 86.070274,40.617893 
	C86.139236,48.433746 86.083389,56.250702 86.083389,64.909554 
	C72.334518,64.909554 58.919113,64.909554 45.004578,64.909470 
z"/>
<path fill="#C0C0C0" opacity="1.000000" stroke="none" 
	d="
M30.538803,94.175629 
	C29.995584,87.174484 29.419092,80.561523 29.362062,73.944099 
	C29.351103,72.672348 31.365311,70.281151 32.469955,70.266479 
	C50.072353,70.032661 67.678780,70.101807 86.067833,70.101807 
	C85.481819,80.976959 88.360695,91.723907 82.513481,101.548546 
	C76.626579,111.439880 67.460129,116.408577 56.219719,115.520897 
	C43.315052,114.501808 34.321983,107.488625 30.538803,94.175629 
z"/>
</svg>