<svg version="1.1" id="Layer_1" xmlns="http://www.w3.org/2000/svg" xmlns:xlink="http://www.w3.org/1999/xlink" x="0px" y="0px"
	 width="100%" viewBox="0 0 110 130" enable-background="new 0 0 110 130" xml:space="preserve">
<path fill="#FFFEFE" opacity="1.000000" stroke="none" 
	d="
M57.000000,131.000000 
	C38.000000,131.000000 19.500000,131.000000 1.000000,131.000000 
	C1.000000,87.666664 1.000000,44.333332 1.000000,1.000000 
	C37.666668,1.000000 74.333336,1.000000 111.000000,1.000000 
	C111.000000,44.333332 111.000000,87.666664 111.000000,131.000000 
	C93.166664,131.000000 75.333336,131.000000 57.000000,131.000000 
M46.500198,66.118568 
	C58.917782,66.118568 71.335365,66.118568 84.117615,66.118568 
	C84.117615,57.384892 84.180725,49.413380 84.103600,41.443226 
	C83.970634,27.703745 72.692551,15.355334 59.143570,14.009094 
	C43.782745,12.482828 29.527023,21.622124 27.267559,35.784931 
	C25.715029,45.516521 26.182117,55.570312 25.718407,66.118721 
	C32.947163,66.118721 39.223804,66.118721 46.500198,66.118568 
M84.118706,85.468170 
	C84.118706,81.048096 84.118706,76.628029 84.118706,72.234283 
	C64.409523,72.234283 45.507359,72.234283 26.150509,72.234283 
	C26.150509,78.709457 25.778120,84.865189 26.218534,90.962196 
	C27.691525,111.353989 48.233303,124.028503 66.890251,115.775185 
	C79.329880,110.272247 84.939163,100.080887 84.118706,85.468170 
z"/>
<path fill="#008000" opacity="1.000000" stroke="none" 
	d="
M46.000320,66.118645 
	C39.223804,66.118721 32.947163,66.118721 25.718407,66.118721 
	C26.182117,55.570312 25.715029,45.516521 27.267559,35.784931 
	C29.527023,21.622124 43.782745,12.482828 59.143570,14.009094 
	C72.692551,15.355334 83.970634,27.703745 84.103600,41.443226 
	C84.180725,49.413380 84.117615,57.384892 84.117615,66.118568 
	C71.335365,66.118568 58.917782,66.118568 46.000320,66.118645 
z"/>
<path fill="#008000" opacity="1.000000" stroke="none" 
	d="
M84.118790,85.957962 
	C84.939163,100.080887 79.329880,110.272247 66.890251,115.775185 
	C48.233303,124.028503 27.691525,111.353989 26.218534,90.962196 
	C25.778120,84.865189 26.150509,78.709457 26.150509,72.234283 
	C45.507359,72.234283 64.409523,72.234283 84.118706,72.234283 
	C84.118706,76.628029 84.118706,81.048096 84.118790,85.957962 
z"/>
</svg>