<svg version="1.1" id="Layer_1" xmlns="http://www.w3.org/2000/svg" xmlns:xlink="http://www.w3.org/1999/xlink" x="0px" y="0px"
	 width="100%" viewBox="0 0 132 124" enable-background="new 0 0 132 124" xml:space="preserve">
<path fill="#FFFEFF" opacity="1.000000" stroke="none" 
	d="
M83.000000,125.000000 
	C55.333332,125.000000 28.166666,125.000000 1.000000,125.000000 
	C1.000000,83.666664 1.000000,42.333332 1.000000,1.000000 
	C45.000000,1.000000 89.000000,1.000000 133.000000,1.000000 
	C133.000000,42.333332 133.000000,83.666664 133.000000,125.000000 
	C116.500000,125.000000 100.000000,125.000000 83.000000,125.000000 
M58.701370,110.981232 
	C64.316544,111.005104 70.021240,111.687469 75.531319,110.938339 
	C98.808640,107.773621 118.981537,88.045021 118.483772,60.556656 
	C117.825211,24.189394 85.358963,6.059863 58.945351,10.749158 
	C31.785290,15.570973 11.897978,43.106487 17.668482,70.020157 
	C22.392265,92.051933 36.038334,105.549057 58.701370,110.981232 
z"/>
<path fill="#E058FD" opacity="1.000000" stroke="none" 
	d="
M58.278378,110.937668 
	C36.038334,105.549057 22.392265,92.051933 17.668482,70.020157 
	C11.897978,43.106487 31.785290,15.570973 58.945351,10.749158 
	C85.358963,6.059863 117.825211,24.189394 118.483772,60.556656 
	C118.981537,88.045021 98.808640,107.773621 75.531319,110.938339 
	C70.021240,111.687469 64.316544,111.005104 58.278378,110.937668 
M91.196449,97.378281 
	C92.597923,97.199814 94.372559,97.509468 95.343201,96.767441 
	C105.132111,89.284149 111.496140,79.669312 113.039490,67.209579 
	C113.551720,63.074238 111.372139,61.336967 107.569626,61.266724 
	C102.738434,61.177479 97.901955,61.336681 93.072243,61.213192 
	C86.785423,61.052456 80.097412,59.904190 78.475060,68.759613 
	C78.369598,69.335213 77.434074,69.750237 77.307091,70.332123 
	C77.013863,71.675842 76.375359,73.426041 76.937447,74.398155 
	C81.340897,82.013855 85.994736,89.484779 91.196449,97.378281 
M24.521179,76.802254 
	C27.447090,84.233078 32.014931,90.484108 38.134148,95.591614 
	C42.137691,98.933220 44.110565,98.631943 46.901558,94.135361 
	C49.179913,90.464691 50.998577,86.482445 53.505760,82.985901 
	C57.821663,76.966888 60.508228,71.088257 54.647820,64.543945 
	C54.542740,64.426605 54.556400,64.181236 54.440903,64.098244 
	C53.100708,63.135109 51.773174,61.419521 50.391178,61.371407 
	C42.745567,61.105228 35.084885,61.177330 27.431181,61.275188 
	C23.148539,61.329948 21.460846,63.856716 22.151770,67.882622 
	C22.627199,70.652878 23.508162,73.353539 24.521179,76.802254 
M76.977791,16.260160 
	C68.644592,14.492736 60.491581,15.283571 52.501965,18.064741 
	C47.003975,19.978582 46.211361,21.907539 48.960331,26.899979 
	C52.161667,32.713947 55.642155,38.379478 58.689709,44.270714 
	C60.304485,47.392242 62.481510,47.701908 65.754028,48.184898 
	C72.890022,49.238106 76.367172,46.013775 78.896034,40.117748 
	C80.196526,37.085655 82.119186,34.319256 83.774315,31.440626 
	C89.977127,20.652596 89.700455,19.960518 76.977791,16.260160 
M73.814468,54.637676 
	C72.970917,54.113483 72.167999,53.504002 71.276917,53.079601 
	C67.010513,51.047615 63.469406,52.358875 60.687305,55.797474 
	C57.797920,59.368687 58.110207,63.311737 60.656387,66.826149 
	C63.203548,70.341927 67.008179,70.950447 70.938248,69.545837 
	C76.691246,67.489708 78.030846,61.521328 73.814468,54.637676 
z"/>
<path fill="#FEFBFF" opacity="1.000000" stroke="none" 
	d="
M90.883896,97.189316 
	C85.994736,89.484779 81.340897,82.013855 76.937447,74.398155 
	C76.375359,73.426041 77.013863,71.675842 77.307091,70.332123 
	C77.434074,69.750237 78.369598,69.335213 78.475060,68.759613 
	C80.097412,59.904190 86.785423,61.052456 93.072243,61.213192 
	C97.901955,61.336681 102.738434,61.177479 107.569626,61.266724 
	C111.372139,61.336967 113.551720,63.074238 113.039490,67.209579 
	C111.496140,79.669312 105.132111,89.284149 95.343201,96.767441 
	C94.372559,97.509468 92.597923,97.199814 90.883896,97.189316 
z"/>
<path fill="#FEFBFF" opacity="1.000000" stroke="none" 
	d="
M24.364525,76.443779 
	C23.508162,73.353539 22.627199,70.652878 22.151770,67.882622 
	C21.460846,63.856716 23.148539,61.329948 27.431181,61.275188 
	C35.084885,61.177330 42.745567,61.105228 50.391178,61.371407 
	C51.773174,61.419521 53.100708,63.135109 54.440903,64.098244 
	C54.556400,64.181236 54.542740,64.426605 54.647820,64.543945 
	C60.508228,71.088257 57.821663,76.966888 53.505760,82.985901 
	C50.998577,86.482445 49.179913,90.464691 46.901558,94.135361 
	C44.110565,98.631943 42.137691,98.933220 38.134148,95.591614 
	C32.014931,90.484108 27.447090,84.233078 24.364525,76.443779 
z"/>
<path fill="#FEFCFF" opacity="1.000000" stroke="none" 
	d="
M77.373642,16.385212 
	C89.700455,19.960518 89.977127,20.652596 83.774315,31.440626 
	C82.119186,34.319256 80.196526,37.085655 78.896034,40.117748 
	C76.367172,46.013775 72.890022,49.238106 65.754028,48.184898 
	C62.481510,47.701908 60.304485,47.392242 58.689709,44.270714 
	C55.642155,38.379478 52.161667,32.713947 48.960331,26.899979 
	C46.211361,21.907539 47.003975,19.978582 52.501965,18.064741 
	C60.491581,15.283571 68.644592,14.492736 77.373642,16.385212 
z"/>
<path fill="#FEFAFF" opacity="1.000000" stroke="none" 
	d="
M74.082321,54.905136 
	C78.030846,61.521328 76.691246,67.489708 70.938248,69.545837 
	C67.008179,70.950447 63.203548,70.341927 60.656387,66.826149 
	C58.110207,63.311737 57.797920,59.368687 60.687305,55.797474 
	C63.469406,52.358875 67.010513,51.047615 71.276917,53.079601 
	C72.167999,53.504002 72.970917,54.113483 74.082321,54.905136 
z"/>
</svg>