<svg version="1.1" id="Layer_1" xmlns="http://www.w3.org/2000/svg" xmlns:xlink="http://www.w3.org/1999/xlink" x="0px" y="0px"
	 width="100%" viewBox="0 0 140 134" enable-background="new 0 0 140 134" xml:space="preserve">
<path fill="#FEFFFF" opacity="1.000000" stroke="none" 
	d="
M80.000000,135.000000 
	C53.333332,135.000000 27.166666,135.000000 1.000000,135.000000 
	C1.000000,90.333336 1.000000,45.666668 1.000000,1.000000 
	C47.666668,1.000000 94.333336,1.000000 141.000000,1.000000 
	C141.000000,45.666668 141.000000,90.333336 141.000000,135.000000 
	C120.833336,135.000000 100.666664,135.000000 80.000000,135.000000 
M30.983807,100.472328 
	C44.891270,116.390671 62.294903,122.264816 82.930016,118.101311 
	C106.800812,113.284958 126.586021,89.252403 123.156845,60.865696 
	C118.703674,24.002445 77.585060,3.001018 45.629105,21.609564 
	C17.169603,38.182060 10.457623,72.957909 30.983807,100.472328 
z"/>
<path fill="#80D7DF" opacity="1.000000" stroke="none" 
	d="
M30.747551,100.204849 
	C10.457623,72.957909 17.169603,38.182060 45.629105,21.609564 
	C77.585060,3.001018 118.703674,24.002445 123.156845,60.865696 
	C126.586021,89.252403 106.800812,113.284958 82.930016,118.101311 
	C62.294903,122.264816 44.891270,116.390671 30.747551,100.204849 
M59.408318,45.116768 
	C61.817574,52.038525 66.169876,55.340519 73.937218,54.155437 
	C76.703148,53.733437 78.457230,53.257294 79.825958,50.794529 
	C83.450356,44.273125 87.257561,37.853050 91.011795,31.404161 
	C93.234573,27.585962 91.880112,25.107244 88.088142,23.589314 
	C76.794441,19.068426 65.534721,19.134579 54.241390,23.717350 
	C50.478374,25.244362 49.442909,27.493433 51.445206,31.056877 
	C53.963852,35.539253 56.486347,40.019463 59.408318,45.116768 
M24.304895,73.387238 
	C26.433987,85.430145 31.758251,95.589249 41.541756,103.256737 
	C45.039497,105.997978 47.543877,105.356819 49.663990,101.738731 
	C52.013985,97.728363 54.062012,93.502960 56.759800,89.743057 
	C61.212135,83.537827 63.697468,77.437843 57.760696,70.876129 
	C56.610184,69.604507 54.876923,68.099724 53.363503,68.044502 
	C45.562939,67.759880 37.745365,67.987770 29.935976,67.877441 
	C26.538874,67.829460 24.550409,69.125031 24.304895,73.387238 
M102.444672,102.071739 
	C110.582703,94.904366 115.620560,85.952759 117.772995,75.356461 
	C118.857758,70.016228 117.193336,67.958755 111.691277,67.923347 
	C104.379807,67.876282 97.067001,67.973068 89.756447,67.878700 
	C87.170555,67.845322 85.297295,68.243240 84.596542,71.234085 
	C84.237686,72.765732 83.174965,74.248413 82.108902,75.473511 
	C80.086746,77.797340 79.828697,79.815239 81.593452,82.583138 
	C85.338005,88.456245 88.689865,94.579781 92.201080,100.601593 
	C95.334724,105.975853 96.636497,106.239952 102.444672,102.071739 
M79.829636,71.112251 
	C81.389412,65.256691 79.578720,61.060020 74.545570,58.865299 
	C70.806267,57.234772 65.565140,59.016926 63.297279,62.690090 
	C60.871902,66.618362 61.807564,71.852737 65.459724,74.787460 
	C70.046570,78.473259 74.694084,77.479607 79.829636,71.112251 
z"/>
<path fill="#FDFEFE" opacity="1.000000" stroke="none" 
	d="
M59.207748,44.808689 
	C56.486347,40.019463 53.963852,35.539253 51.445206,31.056877 
	C49.442909,27.493433 50.478374,25.244362 54.241390,23.717350 
	C65.534721,19.134579 76.794441,19.068426 88.088142,23.589314 
	C91.880112,25.107244 93.234573,27.585962 91.011795,31.404161 
	C87.257561,37.853050 83.450356,44.273125 79.825958,50.794529 
	C78.457230,53.257294 76.703148,53.733437 73.937218,54.155437 
	C66.169876,55.340519 61.817574,52.038525 59.207748,44.808689 
z"/>
<path fill="#FEFFFF" opacity="1.000000" stroke="none" 
	d="
M24.244595,72.989151 
	C24.550409,69.125031 26.538874,67.829460 29.935976,67.877441 
	C37.745365,67.987770 45.562939,67.759880 53.363503,68.044502 
	C54.876923,68.099724 56.610184,69.604507 57.760696,70.876129 
	C63.697468,77.437843 61.212135,83.537827 56.759800,89.743057 
	C54.062012,93.502960 52.013985,97.728363 49.663990,101.738731 
	C47.543877,105.356819 45.039497,105.997978 41.541756,103.256737 
	C31.758251,95.589249 26.433987,85.430145 24.244595,72.989151 
z"/>
<path fill="#FEFFFF" opacity="1.000000" stroke="none" 
	d="
M102.173416,102.317772 
	C96.636497,106.239952 95.334724,105.975853 92.201080,100.601593 
	C88.689865,94.579781 85.338005,88.456245 81.593452,82.583138 
	C79.828697,79.815239 80.086746,77.797340 82.108902,75.473511 
	C83.174965,74.248413 84.237686,72.765732 84.596542,71.234085 
	C85.297295,68.243240 87.170555,67.845322 89.756447,67.878700 
	C97.067001,67.973068 104.379807,67.876282 111.691277,67.923347 
	C117.193336,67.958755 118.857758,70.016228 117.772995,75.356461 
	C115.620560,85.952759 110.582703,94.904366 102.173416,102.317772 
z"/>
<path fill="#FBFEFE" opacity="1.000000" stroke="none" 
	d="
M79.664543,71.448997 
	C74.694084,77.479607 70.046570,78.473259 65.459724,74.787460 
	C61.807564,71.852737 60.871902,66.618362 63.297279,62.690090 
	C65.565140,59.016926 70.806267,57.234772 74.545570,58.865299 
	C79.578720,61.060020 81.389412,65.256691 79.664543,71.448997 
z"/>
</svg>