<?xml version="1.0" encoding="UTF-8" standalone="no"?>
<svg
   xmlns:dc="http://purl.org/dc/elements/1.1/"
   xmlns:cc="http://creativecommons.org/ns#"
   xmlns:rdf="http://www.w3.org/1999/02/22-rdf-syntax-ns#"
   xmlns:svg="http://www.w3.org/2000/svg"
   xmlns="http://www.w3.org/2000/svg"
   xmlns:sodipodi="http://sodipodi.sourceforge.net/DTD/sodipodi-0.dtd"
   xmlns:inkscape="http://www.inkscape.org/namespaces/inkscape"
   version="1.1"
   id="svg2"
   xml:space="preserve"
   width="1015.3067"
   height="746.37335"
   viewBox="0 0 1015.3067 746.37335"
   sodipodi:docname="NUHS Logo Pantone (3).eps"><metadata
     id="metadata8"><rdf:RDF><cc:Work
         rdf:about=""><dc:format>image/svg+xml</dc:format><dc:type
           rdf:resource="http://purl.org/dc/dcmitype/StillImage" /></cc:Work></rdf:RDF></metadata><defs
     id="defs6" /><sodipodi:namedview
     pagecolor="#ffffff"
     bordercolor="#666666"
     borderopacity="1"
     objecttolerance="10"
     gridtolerance="10"
     guidetolerance="10"
     inkscape:pageopacity="0"
     inkscape:pageshadow="2"
     inkscape:window-width="640"
     inkscape:window-height="480"
     id="namedview4" /><g
     id="g10"
     inkscape:groupmode="layer"
     inkscape:label="ink_ext_XXXXXX"
     transform="matrix(1.3333333,0,0,-1.3333333,0,746.37333)"><g
       id="g12"
       transform="scale(0.1)"><path
         d="m 5562.2,2228.95 c 110.62,99.68 166.74,236.7 166.74,407.27 0,129.42 -39.41,239.62 -117.13,327.52 -74.81,84.58 -192.11,152.78 -348.95,202.81 -97.93,30.59 -169.07,58.33 -211.45,82.45 -36.81,20.94 -62.73,43.45 -77.07,66.92 -13.97,22.89 -20.75,49.45 -20.75,81.2 0,56.81 17.14,97.46 53.99,127.93 39.42,32.65 100.29,49.2 180.94,49.2 52.24,0 104.61,-8.62 155.6,-25.63 50.71,-16.9 94.68,-39.49 132.27,-68.36 10.06,-7.21 19.07,-14.01 26.9,-20.4 7.09,-5.81 13.26,-11.29 18.42,-16.44 l 45.05,-44.68 44.85,44.89 c 66.88,66.95 98.06,122.56 98.06,175.03 0,35.33 -11.84,68.39 -35.23,98.25 -19.47,24.85 -47.98,48.37 -86.92,71.77 -50.48,30.61 -113.35,55.01 -186.85,72.5 -72.01,17.13 -143.38,25.8 -212.15,25.8 -109.74,0 -208.92,-19.72 -294.79,-58.65 -88.62,-40.19 -158.84,-98.96 -208.69,-174.68 -50.1,-76.13 -75.51,-168.09 -75.51,-273.38 0,-87.43 17.98,-164.91 53.44,-230.21 35.57,-65.58 89.5,-121.65 160.23,-166.61 67.49,-42.97 162.21,-82.02 288.38,-119 80.86,-25.48 141.26,-50.97 179.52,-75.76 33.51,-21.73 57.61,-46.97 71.61,-75 14.71,-29.4 22.17,-66.01 22.17,-108.76 0,-68.01 -20.42,-118.86 -62.46,-155.49 -43.97,-38.34 -111.7,-57.77 -201.36,-57.77 -64.21,0 -129.03,12.36 -192.78,36.77 -64.69,24.69 -125.63,60.16 -181.11,105.43 l -50.92,41.54 -39.92,-52.21 c -23.08,-30.18 -42.52,-60.53 -57.77,-90.14 -18.53,-35.96 -27.57,-66.38 -27.57,-93 0,-38.67 15.28,-94.47 87.74,-141.53 50.28,-36.81 115.71,-65.07 199.94,-86.33 80.94,-20.47 169.23,-30.84 262.39,-30.84 183.97,0 332.39,49.65 441.14,147.59 z M 4419.82,2117.48 v 1530.08 c 0,136.85 -77.62,215.34 -212.97,215.34 -17.14,0 -39.41,-1.72 -68.06,-5.28 l -55.82,-6.95 v -676.43 h -638.34 v 473.32 c 0,136.85 -77.61,215.34 -212.96,215.34 -17.15,0 -39.38,-1.72 -68.1,-5.28 l -55.82,-6.93 V 2117.48 h 336.88 v 746.45 h 638.34 v -746.45 z m -1748.21,102.25 c 114.12,93.28 181.04,227.97 198.72,399.31 5.16,43.22 7.69,109.47 7.69,202.59 v 825.93 c 0,136.85 -77.61,215.34 -212.96,215.34 -17.14,0 -39.38,-1.72 -68.1,-5.28 l -55.81,-6.93 V 2792.74 c 0,-69.8 -4.49,-129.95 -13.33,-178.36 -14.65,-77.31 -44.27,-131.31 -90.53,-165.11 -48.02,-35.02 -122.09,-52.8 -220.12,-52.8 -107.51,0 -183.07,28.89 -230.95,88.3 -50.58,62.68 -76.2,166.29 -76.2,307.97 v 854.82 c 0,136.85 -77.61,215.34 -212.96,215.34 -17.14,0 -39.41,-1.72 -68.06,-5.28 l -55.82,-6.95 V 2814.4 c 0,-105.77 5.07,-185.78 15.53,-245.25 30.13,-161.11 98.33,-284.23 202.74,-365.93 103.35,-80.87 244.95,-121.86 420.93,-121.86 192.41,0 346.93,46.54 459.23,138.37 z M 1047.88,2117.48 327.266,3217.47 V 2117.48 H 4.90234 v 1713.45 l 40.79686,15.71 c 28.4805,10.95 66.6798,16.26 116.7928,16.26 45.117,0 81.66,-8.14 111.692,-24.93 29.898,-16.77 56.593,-44.29 81.765,-84.2 L 1018.63,2718.89 v 1131.78 l 55.81,6.95 c 28.65,3.56 50.11,5.28 65.63,5.28 61.42,0 111.06,-19.72 147.57,-58.63 35.43,-37.74 53.39,-90.47 53.39,-156.71 V 2117.48 h -293.15"
         style="fill:#203566;fill-opacity:1;fill-rule:nonzero;stroke:none"
         id="path14" /><path
         d="m 4614.27,633.941 c 4.85,0.61 8.65,0.911 11.39,0.911 2.72,0 4.69,0 5.92,0 15.78,0 28.69,-3.801 38.71,-11.383 10.02,-7.59 16.24,-19.278 18.66,-35.059 13.98,14.57 32.34,27.172 55.11,37.801 22.78,10.621 49.65,15.93 80.61,15.93 10.93,0 22.16,-1.059 33.7,-3.18 11.53,-2.129 22.78,-5.461 33.71,-10.031 10.92,-4.551 20.94,-10.469 30.05,-17.758 9.12,-7.281 16.4,-15.801 21.86,-25.5 13.97,15.168 32.94,28.379 56.93,39.617 23.99,11.231 51.47,16.852 82.43,16.852 40.08,0 70.9,-9.102 92.46,-27.332 21.55,-18.2 35.37,-40.977 41.44,-68.309 3.03,-12.148 4.85,-25.648 5.46,-40.52 0.61,-14.89 0.92,-29.308 0.92,-43.269 v -258.68 h -77.43 v 255.938 c 0,11.531 -0.15,22.621 -0.45,33.25 -0.31,10.621 -1.97,20.492 -5.01,29.601 -4.26,15.789 -12.76,27.922 -25.5,36.442 -12.75,8.488 -32.79,12.75 -60.12,12.75 -20.04,0 -38.71,-4.262 -56.02,-12.75 -17.31,-8.52 -30.21,-17.922 -38.71,-28.242 1.22,-10.329 2.12,-21.11 2.74,-32.34 0.6,-11.231 0.9,-22.918 0.9,-35.059 v -259.59 h -77.41 v 255.938 c 0,12.75 -0.63,24.742 -1.83,35.992 -1.22,11.23 -3.34,21.391 -6.38,30.5 -10.33,30.371 -37.65,45.551 -81.97,45.551 -13.37,0 -26.28,-1.832 -38.71,-5.473 -12.45,-3.637 -23.54,-8.5 -33.24,-14.57 -9.73,-6.071 -17.63,-12.91 -23.69,-20.5 -6.08,-7.59 -9.11,-15.028 -9.11,-22.309 V 204.031 h -77.42 z M 4439.4,461.801 c 0,16.39 -1.69,31.57 -5.02,45.539 -3.34,13.961 -8.96,26.25 -16.85,36.89 -7.9,10.61 -18.37,18.969 -31.42,25.051 -13.07,6.059 -29.01,9.11 -47.82,9.11 -31.59,0 -57.54,-10.332 -77.88,-30.969 -20.35,-20.652 -31.74,-49.192 -34.16,-85.621 z M 4226.25,403.5 c 1.82,-44.328 13.51,-80.012 35.07,-107.031 21.55,-27.02 54.8,-40.52 99.74,-40.52 16.99,0 32.18,1.813 45.55,5.473 13.34,3.637 24.88,8.027 34.61,13.199 9.69,5.149 17.75,10.77 24.14,16.84 6.36,6.07 11.68,11.539 15.92,16.398 6.68,-8.507 12.6,-17.617 17.77,-27.32 5.15,-9.719 7.74,-17.309 7.74,-22.777 0,-4.86 -1.52,-9.871 -4.55,-15.02 -3.05,-5.164 -8.2,-10.48 -15.49,-15.941 -13.97,-10.34 -31.87,-18.992 -53.74,-25.961 -21.85,-6.969 -48.27,-10.481 -79.24,-10.481 -28.55,0 -55.42,4.11 -80.61,12.313 -25.21,8.187 -47.22,21.398 -66.04,39.609 -18.82,18.231 -33.7,42.051 -44.62,71.508 -10.93,29.441 -16.4,65.422 -16.4,107.93 0,38.25 5.6,71.351 16.84,99.281 11.24,27.93 25.97,50.852 44.18,68.77 18.23,17.91 39.02,31.109 62.4,39.621 23.37,8.5 47.5,12.75 72.41,12.75 30.97,0 57.52,-5.172 79.7,-15.481 22.16,-10.328 40.22,-24.129 54.2,-41.449 13.96,-17.301 24.27,-37.34 30.96,-60.102 6.68,-22.789 10.02,-46.32 10.02,-70.597 0,-8.512 -0.15,-17.172 -0.46,-25.961 -0.3,-8.801 -1.06,-17.16 -2.27,-25.051 z m -362.5,359.781 c 4.23,0.61 7.73,0.918 10.46,0.918 2.74,0 4.71,0 5.93,0 18.21,0 32.93,-4.558 44.17,-13.66 11.23,-9.109 16.86,-25.207 16.86,-48.277 v -70.133 h 135.71 v -65.59 h -135.71 v -235 c 0,-49.789 19.71,-74.68 59.2,-74.68 9.7,0 18.81,1.661 27.32,5 8.5,3.34 16.24,7.293 23.23,11.852 6.98,4.551 12.59,8.949 16.85,13.199 4.25,4.25 6.97,7.289 8.19,9.11 7.3,-9.11 13.51,-17.918 18.67,-26.411 5.16,-8.519 7.76,-16.707 7.76,-24.589 0,-5.469 -2.74,-11.391 -8.21,-17.758 -5.46,-6.383 -13.05,-12.301 -22.77,-17.77 -9.72,-5.461 -21.71,-10.023 -35.98,-13.66 -14.27,-3.641 -29.92,-5.473 -46.9,-5.473 -31.58,0 -56.79,6.082 -75.6,18.223 -18.83,12.137 -32.19,28.828 -40.07,50.098 -4.27,11.519 -6.84,24.14 -7.76,37.789 -0.91,13.679 -1.35,27.183 -1.35,40.543 z M 3736.23,531.93 c -10.33,12.75 -25.36,23.832 -45.08,33.25 -19.74,9.402 -40.85,14.121 -63.31,14.121 -7.9,0 -16.55,-0.781 -25.96,-2.281 -9.42,-1.52 -18.22,-4.258 -26.41,-8.2 -8.2,-3.961 -15.04,-9.558 -20.5,-16.851 -5.47,-7.289 -8.2,-16.387 -8.2,-27.328 0,-9.711 2.28,-17.911 6.84,-24.59 4.55,-6.68 10.93,-12.449 19.12,-17.301 8.2,-4.871 17.77,-8.969 28.7,-12.301 10.93,-3.34 22.76,-6.527 35.52,-9.558 18.22,-4.262 35.82,-9.571 52.83,-15.942 16.99,-6.39 32.02,-14.578 45.08,-24.59 13.05,-10.027 23.38,-22.64 30.97,-37.8 7.59,-15.2 11.38,-34.028 11.38,-56.477 0,-22.473 -4.54,-42.062 -13.66,-58.75 -9.1,-16.711 -21.25,-30.672 -36.43,-41.902 -15.18,-11.239 -32.94,-19.739 -53.29,-25.5 -20.34,-5.758 -41.43,-8.649 -63.29,-8.649 -21.27,0 -40.4,1.68 -57.4,5.008 -17,3.352 -31.27,7.441 -42.8,12.293 -15.18,6.066 -25.81,12.297 -31.88,18.68 -6.08,6.367 -9.1,12.886 -9.1,19.578 0,7.89 2.11,16.082 6.37,24.582 4.24,8.508 9.7,18.226 16.39,29.16 4.24,-3.652 10.16,-8.051 17.77,-13.211 7.58,-5.16 16.69,-10.332 27.32,-15.492 10.62,-5.16 22.32,-9.418 35.07,-12.738 12.75,-3.352 26.41,-5.02 40.98,-5.02 10.93,0 21.56,1.051 31.89,3.188 10.31,2.121 19.58,5.613 27.78,10.472 8.19,4.86 14.87,11.539 20.04,20.039 5.15,8.508 7.74,19.129 7.74,31.891 0,12.75 -2.74,23.219 -8.2,31.418 -5.47,8.203 -12.75,15.031 -21.87,20.492 -9.1,5.469 -19.27,9.859 -30.5,13.211 -11.25,3.328 -22.63,6.207 -34.16,8.656 -17.62,3.641 -34.47,8.344 -50.55,14.121 -16.1,5.762 -30.37,13.5 -42.82,23.223 -12.45,9.707 -22.46,21.699 -30.05,35.977 -7.6,14.25 -11.38,32.023 -11.38,53.293 0,20.039 4.24,37.789 12.75,53.277 8.49,15.48 20.04,28.23 34.61,38.25 14.58,10.023 31.11,17.609 49.64,22.769 18.52,5.153 37.8,7.743 57.84,7.743 23.07,0 44.17,-2.422 63.31,-7.289 19.12,-4.86 34.44,-10.622 45.99,-17.301 12.14,-6.68 20.34,-12.903 24.59,-18.66 4.25,-5.789 6.38,-11.391 6.38,-16.86 0,-6.691 -1.68,-14.429 -5.01,-23.23 -3.35,-8.809 -7.44,-17.461 -12.3,-25.961 z M 3209.78,204.941 H 3178.8 L 3031.24,627.57 c 13.35,4.852 26.72,7.282 40.08,7.282 15.79,0 28.54,-4.86 38.26,-14.571 9.7,-9.711 16.99,-22.172 21.86,-37.34 l 100.2,-310.601 100.18,302.41 c 1.82,6.672 4.24,13.5 7.29,20.48 3.04,6.981 7.14,13.512 12.3,19.579 5.15,6.07 11.38,10.933 18.67,14.582 7.29,3.648 16.08,5.461 26.41,5.461 12.15,0 23.38,-2.723 33.71,-8.192 L 3264.42,144.82 c -6.69,-19.429 -13.98,-37.949 -21.86,-55.5583 -7.9,-17.6015 -17.62,-32.9336 -29.14,-46 C 3201.87,30.2109 3187.75,19.75 3171.06,11.8398 3154.35,3.94922 3134.17,0 3110.49,0 c -23.08,0 -42.35,3.35156 -57.84,10.0195 -15.48,6.6914 -23.23,17.0118 -23.23,30.9688 0,8.5039 2.28,17.3008 6.84,26.414 4.55,9.0977 9.25,17.0079 14.12,23.6797 4.84,-4.2422 12.29,-9.2422 22.31,-15.0312 10.02,-5.7617 22.61,-8.6485 37.8,-8.6485 21.25,0 38.4,7.8985 51.46,23.6797 13.06,15.789 24.74,40.078 35.07,72.867 z m -262.32,510.071 c -12.16,9.707 -28.84,18.82 -50.1,27.328 -21.26,8.492 -45.54,12.75 -72.87,12.75 -21.26,0 -39.02,-2.59 -53.28,-7.738 -14.28,-5.161 -25.81,-11.84 -34.61,-20.043 -8.81,-8.2 -15.19,-17.918 -19.13,-29.149 -3.95,-11.25 -5.92,-22.621 -5.92,-34.16 0,-15.18 3.03,-28.23 9.11,-39.16 6.06,-10.93 14.87,-20.488 26.41,-28.699 11.53,-8.192 25.51,-15.629 41.9,-22.309 16.4,-6.691 35.21,-13.363 56.47,-20.043 20.64,-6.687 40.68,-14.73 60.13,-24.129 19.42,-9.43 36.42,-21.121 51,-35.07 14.57,-13.981 26.25,-30.668 35.06,-50.098 8.8,-19.441 13.22,-42.222 13.22,-68.32 0,-30.359 -5.02,-57.082 -15.04,-80.152 -10.01,-23.079 -24.14,-42.508 -42.35,-58.301 -18.21,-15.789 -39.94,-27.617 -65.13,-35.508 -25.2,-7.879 -52.98,-11.852 -83.34,-11.852 -33.4,0 -64.53,3.641 -93.35,10.93 -28.86,7.293 -51.47,17 -67.87,29.152 -15.19,9.707 -22.77,20.957 -22.77,33.7 0,6.679 2.73,15.179 8.2,25.507 5.47,10.321 11.84,20.043 19.12,29.141 19.44,-15.789 42.66,-29.598 69.69,-41.437 27,-11.84 56.02,-17.762 86.98,-17.762 23.68,0 43.41,3.031 59.21,9.109 15.78,6.063 28.38,13.961 37.8,23.68 9.4,9.711 16.24,20.793 20.49,33.242 4.24,12.449 6.38,25.359 6.38,38.719 0,17.601 -2.6,32.629 -7.74,45.082 -5.17,12.437 -12.76,23.226 -22.78,32.34 -10.02,9.109 -22.62,17.148 -37.79,24.129 -15.19,6.98 -32.49,13.5 -51.92,19.589 -22.48,6.668 -44.04,14.122 -64.68,22.309 -20.65,8.211 -39.01,18.82 -55.1,31.891 -16.1,13.039 -29.01,28.98 -38.71,47.82 -9.72,18.809 -14.58,42.191 -14.58,70.141 0,27.32 5.02,51.449 15.04,72.398 10.01,20.961 23.67,38.41 40.99,52.383 17.3,13.957 37.79,24.59 61.47,31.879 23.69,7.281 49.49,10.918 77.42,10.918 22.46,0 46.6,-2.887 72.42,-8.649 25.81,-5.769 47.82,-14.109 66.03,-25.05 9.71,-6.071 17.91,-12.598 24.59,-19.579 6.68,-6.992 10.03,-15.031 10.03,-24.14 0,-7.281 -2.89,-15.18 -8.65,-23.68 -5.79,-8.512 -12.91,-17.012 -21.41,-25.512 -2.43,2.422 -5.32,5.02 -8.65,7.75 -3.35,2.731 -7.15,5.61 -11.39,8.653 z m -949.09,134.797 c 4.24,0.601 7.74,0.921 10.47,0.921 2.74,0 4.71,0 5.93,0 18.21,0 32.78,-4.558 43.71,-13.671 10.93,-9.098 16.4,-25.2 16.4,-48.27 V 588.41 c 15.78,17.602 35.82,30.961 60.12,40.082 24.28,9.098 50.09,13.649 77.41,13.649 42.5,0 75,-9.559 97.46,-28.68 22.46,-19.129 36.74,-41.449 42.82,-66.961 3.03,-12.148 4.85,-25.648 5.46,-40.52 0.61,-14.89 0.91,-29.308 0.91,-43.269 v -258.68 h -77.42 v 255.938 c 0,11.531 -0.15,22.621 -0.45,33.25 -0.32,10.621 -1.99,20.492 -5.01,29.601 -4.26,15.789 -13.07,27.922 -26.41,36.442 -13.37,8.488 -33.11,12.75 -59.22,12.75 -17.62,0 -33.4,-1.981 -47.35,-5.922 -13.98,-3.961 -25.97,-8.961 -35.99,-15.031 -10.01,-6.079 -17.76,-13.059 -23.23,-20.95 -5.46,-7.89 -8.19,-15.8 -8.19,-23.679 V 204.031 h -77.42 z M 1681.4,763.281 c 4.24,0.61 7.74,0.918 10.47,0.918 2.73,0 4.7,0 5.93,0 18.22,0 32.92,-4.558 44.17,-13.66 11.23,-9.109 16.85,-25.207 16.85,-48.277 v -70.133 h 135.72 v -65.59 h -135.72 v -235 c 0,-49.789 19.73,-74.68 59.2,-74.68 9.71,0 18.82,1.661 27.33,5 8.49,3.34 16.24,7.293 23.23,11.852 6.97,4.551 12.59,8.949 16.85,13.199 4.24,4.25 6.97,7.289 8.19,9.11 7.29,-9.11 13.51,-17.918 18.68,-26.411 5.15,-8.519 7.74,-16.707 7.74,-24.589 0,-5.469 -2.74,-11.391 -8.2,-17.758 -5.46,-6.383 -13.06,-12.301 -22.77,-17.77 -9.72,-5.461 -21.71,-10.023 -35.98,-13.66 -14.27,-3.641 -29.92,-5.473 -46.9,-5.473 -31.59,0 -56.8,6.082 -75.61,18.223 -18.83,12.137 -32.19,28.828 -40.07,50.098 -4.26,11.519 -6.83,24.14 -7.75,37.789 -0.9,13.679 -1.36,27.183 -1.36,40.543 z m -209.5,86.528 c 4.25,0.601 7.75,0.921 10.48,0.921 2.73,0 4.7,0 5.92,0 18.22,0 32.94,-4.558 44.18,-13.671 11.23,-9.098 16.85,-25.2 16.85,-48.27 V 289.648 c 0,-9.109 0.3,-16.859 0.91,-23.226 0.6,-6.383 2.28,-11.692 5.01,-15.942 2.73,-4.25 6.98,-7.441 12.76,-9.558 5.75,-2.141 14.11,-3.203 25.04,-3.203 v -32.778 c -5.47,-1.832 -12.91,-3.332 -22.31,-4.55 -9.43,-1.219 -18.67,-1.832 -27.79,-1.832 -17.61,0 -31.12,2.73 -40.53,8.203 -9.42,5.468 -16.39,12.75 -20.95,21.859 -4.55,9.098 -7.29,19.27 -8.19,30.52 -0.92,11.23 -1.38,22.308 -1.38,33.238 z M 1266.97,419.891 h -26.42 c -19.44,0 -39.16,-1.219 -59.2,-3.641 -20.04,-2.422 -38.26,-6.98 -54.66,-13.648 -16.39,-6.692 -29.75,-16.11 -40.07,-28.243 -10.34,-12.16 -15.48,-27.64 -15.48,-46.457 0,-18.211 5.46,-34.32 16.39,-48.273 10.93,-13.981 31.27,-20.949 61.03,-20.949 15.79,0 30.81,2.281 45.09,6.832 14.26,4.558 26.86,10.16 37.79,16.84 10.93,6.679 19.59,13.976 25.96,21.867 6.38,7.883 9.57,15.492 9.57,22.773 z M 1038.35,536.48 c -4.87,7.891 -8.97,16.399 -12.3,25.512 -3.35,9.11 -5.01,16.399 -5.01,21.867 0,7.871 4.85,15.321 14.58,22.313 9.69,6.969 22.31,13.199 37.79,18.668 15.49,5.461 32.64,9.711 51.46,12.75 18.82,3.031 37.35,4.551 55.57,4.551 30.96,0 56.77,-3.34 77.42,-10.012 20.63,-6.688 37.35,-16.719 50.09,-30.059 12.76,-13.371 21.71,-30.058 26.88,-50.101 5.15,-20.039 7.74,-43.117 7.74,-69.219 V 303.313 c 0,-14.571 0.6,-25.961 1.82,-34.161 1.21,-8.191 3.48,-14.281 6.84,-18.211 3.32,-3.961 7.87,-6.543 13.65,-7.75 5.77,-1.222 13.21,-1.82 22.32,-1.82 v -36.43 c -5.47,-1.832 -12.16,-3.332 -20.04,-4.55 -7.89,-1.219 -16.1,-1.832 -24.59,-1.832 -18.83,0 -35.23,3.8 -49.19,11.39 -13.97,7.59 -22.17,21.09 -24.59,40.531 -15.19,-15.179 -33.4,-28.101 -54.65,-38.71 -21.26,-10.618 -49.19,-15.938 -83.8,-15.938 -15.8,0 -31.73,1.816 -47.82,5.457 -16.1,3.652 -30.67,10.332 -43.72,20.039 -13.06,9.711 -23.84,22.781 -32.33,39.184 -8.509,16.379 -12.755,37.328 -12.755,62.84 0,31.558 8.035,57.378 24.135,77.418 16.08,20.043 35.98,35.82 59.66,47.359 23.68,11.543 49.03,19.43 76.06,23.691 27.01,4.231 51.76,6.68 74.23,7.289 5.47,0 11.84,0 19.13,0 7.29,0 13.66,-0.32 19.13,-0.918 v 13.661 c 0,27.328 -6.54,48.117 -19.59,62.398 -13.06,14.27 -38.11,21.398 -75.14,21.398 -27.32,0 -50.41,-3.488 -69.23,-10.468 -18.83,-7 -37.05,-16.559 -54.65,-28.7 z M 847.996,461.801 c 0,16.39 -1.683,31.57 -5.008,45.539 -3.343,13.961 -8.972,26.25 -16.851,36.89 -7.899,10.61 -18.379,18.969 -31.418,25.051 -13.074,6.059 -29.016,9.11 -47.828,9.11 -31.578,0 -57.539,-10.332 -77.875,-30.969 C 648.668,526.77 637.277,498.23 634.855,461.801 Z M 634.855,403.5 c 1.821,-44.328 13.516,-80.012 35.071,-107.031 21.551,-27.02 54.793,-40.52 99.738,-40.52 16.996,0 32.176,1.813 45.547,5.473 13.34,3.637 24.887,8.027 34.609,13.199 9.703,5.149 17.758,10.77 24.141,16.84 6.371,6.07 11.68,11.539 15.934,16.398 6.679,-8.507 12.597,-17.617 17.761,-27.32 5.149,-9.719 7.739,-17.309 7.739,-22.777 0,-4.86 -1.524,-9.871 -4.551,-15.02 -3.039,-5.164 -8.196,-10.48 -15.489,-15.941 -13.972,-10.34 -31.875,-18.992 -53.734,-25.961 -21.859,-6.969 -48.277,-10.481 -79.242,-10.481 -28.551,0 -55.426,4.11 -80.609,12.313 -25.207,8.187 -47.223,21.398 -66.043,39.609 -18.821,18.231 -33.696,42.051 -44.629,71.508 -10.926,29.441 -16.391,65.422 -16.391,107.93 0,38.25 5.602,71.351 16.848,99.281 11.23,27.93 25.957,50.852 44.172,68.77 18.218,17.91 39.015,31.109 62.398,39.621 23.363,8.5 47.5,12.75 72.406,12.75 30.969,0 57.528,-5.172 79.703,-15.481 22.164,-10.328 40.215,-24.129 54.196,-41.449 13.965,-17.301 24.277,-37.34 30.965,-60.102 6.679,-22.789 10.027,-46.32 10.027,-70.597 0,-8.512 -0.164,-17.172 -0.461,-25.961 -0.313,-8.801 -1.063,-17.16 -2.273,-25.051 z M 0,814.301 c 3.64453,0.59 7.58984,1.051 11.8477,1.359 4.2421,0.309 7.875,0.449 10.9296,0.449 6.0547,0 12.4336,-0.757 19.1211,-2.269 6.6719,-1.531 12.7539,-4.258 18.2188,-8.211 5.4648,-3.938 10.0156,-9.699 13.6562,-17.289 3.6485,-7.61 5.4688,-17.469 5.4688,-29.598 V 555.609 H 368.891 v 258.692 c 3.648,0.59 7.589,1.051 11.847,1.359 4.235,0.309 7.879,0.449 10.922,0.449 6.067,0 12.445,-0.757 19.137,-2.269 6.668,-1.531 12.75,-4.258 18.219,-8.211 5.461,-3.938 10.011,-9.699 13.656,-17.289 3.641,-7.61 5.465,-17.469 5.465,-29.598 V 204.031 H 368.891 V 486.398 H 79.2422 V 204.031 H 0 Z m 6809.4,174.488 h -30.97 l -147.57,422.641 c 13.35,4.85 26.72,7.28 40.08,7.28 15.79,0 28.55,-4.87 38.26,-14.58 9.71,-9.71 17,-22.17 21.87,-37.33 l 100.2,-310.61 100.18,302.41 c 1.83,6.67 4.24,13.51 7.29,20.49 3.03,6.97 7.13,13.51 12.3,19.58 5.15,6.07 11.38,10.93 18.66,14.57 7.3,3.64 16.09,5.47 26.42,5.47 12.15,0 23.38,-2.73 33.71,-8.19 L 6864.05,928.68 c -6.69,-19.43 -13.98,-37.95 -21.86,-55.571 -7.9,-17.597 -17.62,-32.929 -29.15,-45.988 -11.54,-13.062 -25.66,-23.531 -42.35,-31.43 -16.71,-7.89 -36.9,-11.832 -60.57,-11.832 -23.08,0 -42.35,3.34 -57.84,10.012 -15.49,6.688 -23.23,17.008 -23.23,30.969 0,8.512 2.28,17.301 6.83,26.41 4.56,9.109 9.25,17.012 14.13,23.68 4.84,-4.239 12.29,-9.239 22.31,-15.02 10.01,-5.769 22.61,-8.66 37.8,-8.66 21.24,0 38.39,7.902 51.46,23.68 13.05,15.8 24.73,40.082 35.07,72.871 z m -439.92,558.351 c 4.24,0.59 7.73,0.92 10.47,0.92 2.73,0 4.69,0 5.92,0 18.22,0 32.93,-4.56 44.17,-13.68 11.24,-9.11 16.86,-25.2 16.86,-48.27 v -70.13 h 135.71 V 1350.4 H 6446.9 v -235 c 0,-49.8 19.72,-74.69 59.2,-74.69 9.71,0 18.82,1.66 27.32,5.01 8.5,3.33 16.24,7.29 23.24,11.85 6.97,4.55 12.58,8.94 16.84,13.2 4.25,4.24 6.97,7.29 8.19,9.11 7.29,-9.11 13.51,-17.92 18.68,-26.42 5.15,-8.51 7.75,-16.7 7.75,-24.59 0,-5.46 -2.74,-11.38 -8.2,-17.77 -5.47,-6.36 -13.07,-12.28 -22.78,-17.748 -9.71,-5.473 -21.7,-10.02 -35.97,-13.672 -14.28,-3.649 -29.92,-5.461 -46.91,-5.461 -31.59,0 -56.79,6.07 -75.6,18.211 -18.83,12.15 -32.19,28.84 -40.08,50.11 -4.26,11.51 -6.83,24.13 -7.74,37.79 -0.91,13.67 -1.36,27.17 -1.36,40.53 z m -209.49,-126.61 c 4.23,0.6 7.73,0.91 10.46,0.91 2.74,0 4.7,0 5.92,0 18.23,0 32.94,-4.56 44.18,-13.66 11.23,-9.11 16.85,-25.2 16.85,-48.28 v -289.65 c 0,-17.61 2.59,-30.05 7.75,-37.34 5.15,-7.29 17.15,-10.93 35.98,-10.93 v -32.791 c -5.47,-1.82 -12.91,-3.328 -22.32,-4.551 -9.43,-1.207 -18.67,-1.816 -27.78,-1.816 -17.62,0 -31.12,2.726 -40.54,8.187 -9.42,5.461 -16.39,12.761 -20.94,21.861 -4.55,9.11 -7.3,19.27 -8.2,30.52 -0.91,11.23 -1.36,22.31 -1.36,33.24 z m -13.67,135.72 c 0,15.18 4.7,27.63 14.12,37.34 9.4,9.71 21.1,14.58 35.07,14.58 13.96,0 25.64,-4.87 35.06,-14.58 9.42,-9.71 14.12,-22.16 14.12,-37.34 0,-13.98 -4.7,-25.66 -14.12,-35.07 -9.42,-9.41 -21.1,-14.12 -35.06,-14.12 -13.97,0 -25.67,4.71 -35.07,14.12 -9.42,9.41 -14.12,21.09 -14.12,35.07 z m -123.87,-240.47 c -10.34,12.75 -25.35,23.83 -45.08,33.25 -19.74,9.41 -40.85,14.12 -63.31,14.12 -7.89,0 -16.54,-0.77 -25.96,-2.27 -9.42,-1.53 -18.21,-4.27 -26.41,-8.2 -8.2,-3.96 -15.03,-9.57 -20.5,-16.86 -5.46,-7.29 -8.2,-16.4 -8.2,-27.32 0,-9.72 2.28,-17.92 6.84,-24.59 4.55,-6.69 10.93,-12.46 19.12,-17.31 8.2,-4.87 17.76,-8.96 28.7,-12.29 10.93,-3.35 22.77,-6.54 35.52,-9.56 18.21,-4.26 35.82,-9.57 52.83,-15.95 16.99,-6.38 32.02,-14.57 45.08,-24.59 13.06,-10.02 23.38,-22.63 30.98,-37.8 7.57,-15.19 11.37,-34.02 11.37,-56.48 0,-22.47 -4.55,-42.05 -13.65,-58.75 -9.11,-16.7 -21.27,-30.66 -36.43,-41.89 -15.19,-11.239 -32.95,-19.751 -53.3,-25.501 -20.34,-5.758 -41.43,-8.66 -63.3,-8.66 -21.26,0 -40.39,1.68 -57.38,5.019 -17,3.344 -31.28,7.442 -42.81,12.282 -15.18,6.07 -25.81,12.31 -31.88,18.67 -6.08,6.39 -9.11,12.9 -9.11,19.59 0,7.88 2.13,16.08 6.38,24.59 4.24,8.5 9.71,18.22 16.4,29.15 4.23,-3.65 10.15,-8.05 17.76,-13.21 7.59,-5.17 16.69,-10.33 27.32,-15.48 10.62,-5.16 22.32,-9.42 35.07,-12.75 12.76,-3.34 26.41,-5.01 40.99,-5.01 10.93,0 21.55,1.05 31.88,3.19 10.32,2.12 19.58,5.6 27.79,10.47 8.19,4.85 14.87,11.52 20.03,20.04 5.15,8.5 7.74,19.13 7.74,31.88 0,12.76 -2.74,23.23 -8.2,31.42 -5.46,8.19 -12.76,15.03 -21.86,20.5 -9.1,5.47 -19.28,9.86 -30.51,13.2 -11.25,3.34 -22.63,6.22 -34.16,8.65 -17.62,3.66 -34.47,8.34 -50.54,14.12 -16.11,5.78 -30.38,13.51 -42.83,23.23 -12.45,9.7 -22.47,21.71 -30.05,35.98 -7.6,14.26 -11.38,32.02 -11.38,53.28 0,20.04 4.24,37.8 12.75,53.29 8.49,15.48 20.04,28.24 34.61,38.26 14.58,10.02 31.11,17.6 49.64,22.76 18.53,5.16 37.8,7.75 57.84,7.75 23.08,0 44.17,-2.44 63.3,-7.29 19.13,-4.87 34.46,-10.63 46.01,-17.3 12.13,-6.69 20.33,-12.91 24.59,-18.68 4.24,-5.78 6.38,-11.38 6.38,-16.84 0,-6.69 -1.69,-14.45 -5.01,-23.23 -3.35,-8.81 -7.45,-17.47 -12.31,-25.96 z M 5480.5,1417.8 c 4.86,0.6 8.66,0.91 11.39,0.91 2.72,0 4.39,0 5.01,0 13.96,0 26.56,-3.5 37.79,-10.47 11.23,-6.99 18.07,-18.68 20.5,-35.07 8.5,12.76 21.25,24.74 38.25,35.98 17,11.23 36.74,16.85 59.21,16.85 6.68,0 13.81,-0.61 21.41,-1.83 7.59,-1.22 14.72,-3.17 21.4,-5.92 6.67,-2.72 12.14,-6.53 16.4,-11.38 4.24,-4.87 6.38,-11.25 6.38,-19.13 0,-9.71 -2.43,-20.19 -7.3,-31.42 -4.86,-11.24 -9.71,-20.5 -14.57,-27.79 -7.89,7.29 -16.39,12.9 -25.51,16.85 -9.1,3.95 -20.64,5.93 -34.59,5.93 -10.35,0 -20.21,-1.68 -29.61,-5.01 -9.43,-3.34 -17.76,-7.9 -25.05,-13.66 -7.29,-5.79 -13.07,-12.3 -17.31,-19.58 -4.26,-7.29 -6.37,-14.9 -6.37,-22.78 V 987.879 h -77.43 z m -174.87,-172.15 c 0,16.4 -1.68,31.57 -5.01,45.54 -3.34,13.97 -8.97,26.26 -16.84,36.9 -7.91,10.61 -18.38,18.96 -31.43,25.04 -13.07,6.07 -29.01,9.12 -47.82,9.12 -31.59,0 -57.54,-10.34 -77.88,-30.98 -20.35,-20.66 -31.74,-49.18 -34.16,-85.62 z m -213.14,-58.3 c 1.82,-44.32 13.51,-80.01 35.07,-107.02 21.55,-27.03 54.79,-40.53 99.74,-40.53 16.99,0 32.18,1.82 45.55,5.46 13.34,3.65 24.88,8.04 34.61,13.21 9.69,5.16 17.75,10.78 24.14,16.85 6.36,6.07 11.68,11.53 15.93,16.4 6.67,-8.52 12.59,-17.62 17.76,-27.34 5.15,-9.7 7.74,-17.29 7.74,-22.76 0,-4.86 -1.52,-9.88 -4.55,-15.03 -3.04,-5.16 -8.2,-10.48 -15.49,-15.94 -13.97,-10.33 -31.87,-18.99 -53.74,-25.951 -21.86,-6.98 -48.27,-10.48 -79.23,-10.48 -28.56,0 -55.43,4.101 -80.62,12.293 -25.21,8.199 -47.22,21.408 -66.04,39.628 -18.82,18.21 -33.7,42.03 -44.62,71.51 -10.93,29.43 -16.4,65.42 -16.4,107.93 0,38.25 5.6,71.34 16.84,99.27 11.24,27.93 25.96,50.86 44.18,68.77 18.22,17.9 39.02,31.12 62.4,39.62 23.37,8.51 47.5,12.76 72.41,12.76 30.97,0 57.52,-5.17 79.7,-15.48 22.16,-10.34 40.21,-24.14 54.2,-41.45 13.96,-17.3 24.27,-37.34 30.96,-60.12 6.68,-22.77 10.02,-46.3 10.02,-70.59 0,-8.51 -0.15,-17.16 -0.46,-25.96 -0.31,-8.81 -1.06,-17.16 -2.27,-25.05 z m -518.27,224.08 c 14.58,4.85 28.25,7.28 41,7.28 18.22,0 31.72,-5.62 40.54,-16.86 8.79,-11.23 16.52,-27.48 23.21,-48.72 l 97.47,-289.64 99.29,286 c 7.28,22.45 15.32,39.62 24.13,51.47 8.79,11.83 22.62,17.75 41.43,17.75 7.3,0 14.13,-0.76 20.5,-2.28 6.38,-1.52 11.69,-3.49 15.94,-5.91 L 4813.78,984.238 h -79.23 z m -157.56,9.1 c 4.23,0.6 7.73,0.91 10.47,0.91 2.73,0 4.69,0 5.92,0 18.21,0 32.93,-4.56 44.17,-13.66 11.23,-9.11 16.86,-25.2 16.86,-48.28 v -289.65 c 0,-17.61 2.58,-30.05 7.74,-37.34 5.15,-7.29 17.15,-10.93 35.98,-10.93 v -32.791 c -5.46,-1.82 -12.91,-3.328 -22.32,-4.551 -9.42,-1.207 -18.67,-1.816 -27.78,-1.816 -17.62,0 -31.12,2.726 -40.53,8.187 -9.43,5.461 -16.39,12.761 -20.95,21.861 -4.55,9.11 -7.29,19.27 -8.2,30.52 -0.92,11.23 -1.36,22.31 -1.36,33.24 z m -13.67,135.72 c 0,15.18 4.7,27.63 14.11,37.34 9.42,9.71 21.11,14.58 35.08,14.58 13.96,0 25.65,-4.87 35.07,-14.58 9.41,-9.71 14.11,-22.16 14.11,-37.34 0,-13.98 -4.7,-25.66 -14.11,-35.07 -9.42,-9.41 -21.11,-14.12 -35.07,-14.12 -13.97,0 -25.66,4.71 -35.08,14.12 -9.41,9.41 -14.11,21.09 -14.11,35.07 z m -470.9,-138.45 c 4.23,0.6 7.57,0.91 10.01,0.91 2.42,0 4.24,0 5.46,0 13.97,0 26.56,-3.5 37.81,-10.47 11.23,-6.99 18.05,-18.98 20.48,-35.98 13.97,13.96 32.93,26.41 56.94,37.34 23.98,10.93 52.36,16.4 85.15,16.4 41.3,0 72.88,-9.12 94.74,-27.33 21.86,-18.21 36.11,-40.99 42.8,-68.31 3.04,-12.16 4.87,-25.66 5.47,-40.54 0.6,-14.88 0.92,-29.29 0.92,-43.26 V 987.879 h -77.43 v 255.951 c 0,11.53 -0.16,22.61 -0.46,33.24 -0.3,10.62 -1.97,20.5 -5.01,29.61 -4.86,15.78 -13.81,27.92 -26.87,36.43 -13.06,8.5 -32.64,12.75 -58.75,12.75 -17.61,0 -33.4,-1.82 -47.36,-5.46 -13.97,-3.64 -25.81,-8.52 -35.52,-14.58 -9.72,-6.07 -17.31,-13.06 -22.78,-20.95 -5.46,-7.9 -8.19,-15.79 -8.19,-23.68 V 987.879 h -77.41 z m -571.1,180.34 c 3.64,0.61 7.58,1.06 11.84,1.38 4.24,0.29 7.88,0.45 10.93,0.45 6.06,0 12.43,-0.77 19.13,-2.28 6.67,-1.52 12.75,-4.25 18.21,-8.2 5.46,-3.95 10.02,-9.72 13.67,-17.3 3.64,-7.6 5.46,-17.46 5.46,-29.6 v -323.35 c 0,-25.51 2.28,-48.89 6.84,-70.14 4.55,-21.26 12.13,-39.62 22.76,-55.1 10.61,-15.49 24.89,-27.49 42.81,-35.98 17.91,-8.51 40.53,-12.76 67.86,-12.76 41.9,0 74.24,7.89 97.01,23.68 22.76,15.79 37.48,41.91 44.17,78.34 3.64,20.03 5.46,44.02 5.46,71.96 v 378.9 c 3.65,0.61 7.59,1.06 11.85,1.38 4.23,0.29 7.88,0.45 10.92,0.45 6.07,0 12.45,-0.77 19.14,-2.28 6.67,-1.52 12.75,-4.25 18.22,-8.2 5.46,-3.95 10.01,-9.72 13.65,-17.3 3.65,-7.6 5.47,-17.46 5.47,-29.6 v -312.42 c 0,-12.15 -0.15,-24.59 -0.46,-37.35 -0.31,-12.75 -1.07,-24.91 -2.27,-36.42 -2.44,-25.51 -8.36,-49.36 -17.77,-71.51 -9.41,-22.18 -23.22,-41.44 -41.43,-57.84 -18.22,-16.4 -40.85,-29.312 -67.86,-38.71 -27.03,-9.41 -59.67,-14.121 -97.92,-14.121 -65.58,0 -114.93,14.57 -148.01,43.721 -33.11,29.15 -54.51,69.52 -64.21,121.14 -2.45,12.76 -3.96,26.71 -4.57,41.91 -0.6,15.16 -0.9,30.64 -0.9,46.44 z m -384.38,35.53 c 4.24,0.6 7.75,0.91 10.48,0.91 2.73,0 4.7,0 5.92,0 18.22,0 32.94,-4.55 44.18,-13.66 11.22,-9.1 16.84,-25.2 16.84,-48.27 V 1073.5 c 0,-9.12 0.31,-16.85 0.92,-23.23 0.6,-6.37 2.28,-11.7 5.01,-15.93 2.73,-4.25 6.97,-7.45 12.76,-9.57 5.75,-2.13 14.11,-3.19 25.04,-3.19 v -32.791 c -5.47,-1.82 -12.91,-3.328 -22.32,-4.551 -9.42,-1.207 -18.67,-1.816 -27.78,-1.816 -17.62,0 -31.12,2.726 -40.53,8.187 -9.42,5.461 -16.4,12.761 -20.95,21.861 -4.55,9.11 -7.29,19.27 -8.2,30.52 -0.91,11.23 -1.37,22.31 -1.37,33.24 z m -204.93,-429.92 h -26.42 c -19.44,0 -39.17,-1.22 -59.21,-3.64 -20.03,-2.43 -38.25,-7 -54.65,-13.67 -16.39,-6.68 -29.75,-16.09 -40.08,-28.23 -10.33,-12.16 -15.47,-27.63 -15.47,-46.45 0,-18.23 5.46,-34.32 16.39,-48.27 10.93,-13.98 31.27,-20.95 61.02,-20.95 15.79,0 30.82,2.27 45.09,6.82 14.26,4.56 26.87,10.16 37.8,16.85 10.93,6.68 19.59,13.97 25.96,21.87 6.38,7.88 9.57,15.48 9.57,22.77 z m -228.63,116.59 c -4.87,7.89 -8.96,16.4 -12.3,25.51 -3.34,9.11 -5,16.4 -5,21.85 0,7.89 4.85,15.34 14.57,22.32 9.7,6.97 22.32,13.21 37.8,18.67 15.49,5.47 32.64,9.71 51.46,12.75 18.82,3.03 37.35,4.56 55.57,4.56 30.96,0 56.76,-3.34 77.42,-10.02 20.63,-6.68 37.34,-16.71 50.1,-30.05 12.75,-13.37 21.7,-30.07 26.87,-50.11 5.15,-20.04 7.74,-43.13 7.74,-69.22 v -179.43 c 0,-14.58 0.6,-25.96 1.82,-34.16 1.2,-8.2 3.48,-14.28 6.83,-18.23 3.33,-3.94 7.88,-6.52 13.66,-7.73 5.77,-1.23 13.21,-1.83 22.31,-1.83 v -36.431 c -5.46,-1.82 -12.15,-3.328 -20.03,-4.551 -7.9,-1.207 -16.1,-1.816 -24.59,-1.816 -18.84,0 -35.23,3.797 -49.19,11.379 -13.97,7.589 -22.17,21.089 -24.59,40.539 -15.19,-15.19 -33.41,-28.1 -54.65,-38.719 -21.27,-10.609 -49.19,-15.941 -83.81,-15.941 -15.79,0 -31.72,1.82 -47.81,5.468 -16.1,3.641 -30.67,10.321 -43.72,20.032 -13.07,9.71 -23.84,22.78 -32.33,39.17 -8.51,16.39 -12.76,37.35 -12.76,62.86 0,31.56 8.04,57.38 24.14,77.42 16.08,20.04 35.98,35.82 59.66,47.36 23.68,11.53 49.03,19.43 76.06,23.68 27.01,4.24 51.76,6.67 74.23,7.29 5.46,0 11.84,0 19.13,0 7.29,0 13.66,-0.31 19.12,-0.91 v 13.65 c 0,27.33 -6.53,48.13 -19.58,62.4 -13.06,14.26 -38.11,21.4 -75.14,21.4 -27.32,0 -50.41,-3.49 -69.23,-10.47 -18.83,-6.99 -37.05,-16.55 -54.65,-28.69 z m -500.95,97.46 c 4.23,0.6 7.58,0.91 10.01,0.91 2.42,0 4.24,0 5.46,0 13.97,0 26.56,-3.5 37.81,-10.47 11.23,-6.99 18.05,-18.98 20.49,-35.98 13.96,13.96 32.93,26.41 56.93,37.34 23.98,10.93 52.37,16.4 85.16,16.4 41.29,0 72.87,-9.12 94.73,-27.33 21.86,-18.21 36.12,-40.99 42.81,-68.31 3.04,-12.16 4.86,-25.66 5.46,-40.54 0.6,-14.88 0.92,-29.29 0.92,-43.26 V 987.879 h -77.43 v 255.951 c 0,11.53 -0.15,22.61 -0.46,33.24 -0.3,10.62 -1.97,20.5 -5.01,29.61 -4.86,15.78 -13.81,27.92 -26.86,36.43 -13.07,8.5 -32.65,12.75 -58.75,12.75 -17.62,0 -33.41,-1.82 -47.37,-5.46 -13.97,-3.64 -25.81,-8.52 -35.52,-14.58 -9.72,-6.07 -17.31,-13.06 -22.77,-20.95 -5.47,-7.9 -8.2,-15.79 -8.2,-23.68 V 987.879 h -77.41 z m -184,-214.96 c 0,18.82 -1.67,37.49 -5,56.02 -3.34,18.51 -9.27,35.21 -17.76,50.09 -8.51,14.88 -20.36,26.87 -35.53,35.98 -15.19,9.11 -34.93,13.67 -59.2,13.67 -23.09,0 -42.36,-4.56 -57.84,-13.67 -15.49,-9.11 -27.78,-21.1 -36.89,-35.98 -9.11,-14.88 -15.64,-31.58 -19.59,-50.09 -3.95,-18.53 -5.91,-37.2 -5.91,-56.02 0,-18.83 1.67,-37.8 5.01,-56.92 3.33,-19.13 9.56,-36.59 18.67,-52.39 9.11,-15.79 21.24,-28.68 36.43,-38.71 15.18,-10.01 34.62,-15.02 58.29,-15.02 24.28,0 44.32,5.01 60.12,15.02 15.79,10.03 27.93,22.79 36.44,38.27 8.49,15.47 14.42,32.93 17.76,52.37 3.33,19.42 5,38.55 5,57.38 z m 81.98,0.91 c 0,-29.76 -3.64,-58.45 -10.93,-86.07 -7.28,-27.64 -18.98,-52.08 -35.06,-73.33 -16.1,-21.26 -36.89,-38.25 -62.4,-50.998 -25.5,-12.75 -56.47,-19.133 -92.91,-19.133 -35.84,0 -66.49,6.07 -91.99,18.211 -25.51,12.15 -46.15,28.38 -61.94,48.74 -15.79,20.33 -27.32,44.31 -34.61,71.95 -7.29,27.63 -10.93,56.93 -10.93,87.9 0,30.36 4.24,59.2 12.76,86.53 8.49,27.32 21.24,51.15 38.25,71.5 16.98,20.34 38.1,36.57 63.3,48.73 25.19,12.14 54.79,18.22 88.81,18.22 35.21,0 65.43,-6.08 90.63,-18.22 25.19,-12.16 45.68,-28.39 61.48,-48.73 15.79,-20.35 27.33,-43.87 34.61,-70.59 7.29,-26.73 10.93,-54.96 10.93,-84.71 z m -588.41,216.78 c 4.24,0.6 7.74,0.91 10.48,0.91 2.73,0 4.69,0 5.92,0 18.21,0 32.93,-4.56 44.17,-13.66 11.23,-9.11 16.85,-25.2 16.85,-48.28 v -289.65 c 0,-17.61 2.59,-30.05 7.75,-37.34 5.15,-7.29 17.15,-10.93 35.97,-10.93 v -32.791 c -5.46,-1.82 -12.9,-3.328 -22.31,-4.551 -9.43,-1.207 -18.67,-1.816 -27.78,-1.816 -17.62,0 -31.12,2.726 -40.53,8.187 -9.43,5.461 -16.4,12.761 -20.96,21.861 -4.55,9.11 -7.28,19.27 -8.19,30.52 -0.92,11.23 -1.37,22.31 -1.37,33.24 z m -13.66,135.72 c 0,15.18 4.7,27.63 14.11,37.34 9.41,9.71 21.1,14.58 35.08,14.58 13.96,0 25.64,-4.87 35.07,-14.58 9.41,-9.71 14.11,-22.16 14.11,-37.34 0,-13.98 -4.7,-25.66 -14.11,-35.07 -9.43,-9.41 -21.11,-14.12 -35.07,-14.12 -13.98,0 -25.67,4.71 -35.08,14.12 -9.41,9.41 -14.11,21.09 -14.11,35.07 z m -302.38,-9.11 c 4.24,0.59 7.73,0.92 10.46,0.92 2.74,0 4.71,0 5.93,0 18.22,0 32.93,-4.56 44.18,-13.68 11.23,-9.11 16.85,-25.2 16.85,-48.27 v -70.13 h 135.71 v -65.58 h -135.71 v -235 c 0,-49.8 19.72,-74.69 59.2,-74.69 9.7,0 18.81,1.66 27.33,5.01 8.49,3.33 16.24,7.29 23.22,11.85 6.98,4.55 12.6,8.94 16.85,13.2 4.25,4.24 6.98,7.29 8.2,9.11 7.28,-9.11 13.5,-17.92 18.67,-26.42 5.16,-8.51 7.75,-16.7 7.75,-24.59 0,-5.46 -2.74,-11.38 -8.21,-17.77 -5.46,-6.36 -13.06,-12.28 -22.76,-17.748 -9.73,-5.473 -21.72,-10.02 -35.99,-13.672 -14.27,-3.649 -29.91,-5.461 -46.9,-5.461 -31.59,0 -56.79,6.07 -75.6,18.211 -18.83,12.15 -32.19,28.84 -40.08,50.11 -4.26,11.51 -6.83,24.13 -7.75,37.79 -0.9,13.67 -1.35,27.17 -1.35,40.53 z M 831.598,1203.75 h -26.422 c -19.438,0 -39.164,-1.22 -59.203,-3.64 -20.039,-2.43 -38.258,-7 -54.653,-13.67 -16.398,-6.68 -29.757,-16.09 -40.078,-28.23 -10.332,-12.16 -15.48,-27.63 -15.48,-46.45 0,-18.23 5.465,-34.32 16.398,-48.27 10.926,-13.98 31.27,-20.95 61.02,-20.95 15.789,0 30.82,2.27 45.093,6.82 14.258,4.56 26.864,10.16 37.797,16.85 10.926,6.68 19.586,13.97 25.957,21.87 6.375,7.88 9.571,15.48 9.571,22.77 z m -228.629,116.59 c -4.867,7.89 -8.965,16.4 -12.301,25.51 -3.344,9.11 -5.004,16.4 -5.004,21.85 0,7.89 4.856,15.34 14.574,22.32 9.703,6.97 22.317,13.21 37.797,18.67 15.492,5.47 32.641,9.71 51.461,12.75 18.82,3.03 37.356,4.56 55.574,4.56 30.957,0 56.762,-3.34 77.414,-10.02 20.633,-6.68 37.344,-16.71 50.098,-30.05 12.75,-13.37 21.703,-30.07 26.871,-50.11 5.152,-20.04 7.738,-43.13 7.738,-69.22 v -179.43 c 0,-14.58 0.602,-25.96 1.829,-34.16 1.199,-8.2 3.476,-14.28 6.832,-18.23 3.324,-3.94 7.875,-6.52 13.656,-7.73 5.765,-1.23 13.207,-1.83 22.312,-1.83 v -36.431 c -5.461,-1.82 -12.152,-3.328 -20.039,-4.551 -7.89,-1.207 -16.093,-1.816 -24.59,-1.816 -18.832,0 -35.226,3.797 -49.183,11.379 -13.973,7.589 -22.168,21.089 -24.59,40.539 -15.191,-15.19 -33.406,-28.1 -54.652,-38.719 -21.266,-10.609 -49.192,-15.941 -83.801,-15.941 -15.801,0 -31.731,1.82 -47.82,5.468 -16.094,3.641 -30.668,10.321 -43.723,20.032 -13.059,9.71 -23.836,22.78 -32.328,39.17 -8.512,16.39 -12.754,37.35 -12.754,62.86 0,31.56 8.043,57.38 24.137,77.42 16.078,20.04 35.98,35.82 59.656,47.36 23.683,11.53 49.035,19.43 76.062,23.68 27.008,4.24 51.762,6.67 74.227,7.29 5.469,0 11.848,0 19.137,0 7.285,0 13.656,-0.31 19.121,-0.91 v 13.65 c 0,27.33 -6.535,48.13 -19.586,62.4 -13.063,14.26 -38.11,21.4 -75.137,21.4 -27.324,0 -50.41,-3.49 -69.227,-10.47 -18.835,-6.99 -37.05,-16.55 -54.656,-28.69 z M 0,1595.42 c 3.64453,1.21 8.80078,2.27 15.4883,3.18 6.6719,0.92 13.3437,1.37 20.039,1.37 13.3438,0 23.8204,-2.28 31.4258,-6.84 7.5821,-4.55 14.7071,-12.28 21.3985,-23.22 L 383.469,1109.02 v 489.12 c 3.64,0.61 7.429,1.06 11.386,1.38 3.938,0.29 7.43,0.45 10.473,0.45 5.469,0 11.231,-0.77 17.305,-2.28 6.062,-1.52 11.683,-4.25 16.855,-8.2 5.153,-3.95 9.399,-9.72 12.742,-17.3 3.336,-7.6 5.016,-17.46 5.016,-29.6 V 987.879 H 383.469 L 73.7734,1460.6 V 987.879 H 0 v 607.541"
         style="fill:#203566;fill-opacity:1;fill-rule:nonzero;stroke:none"
         id="path16" /><path
         d="m 6799.44,4854.96 -0.7,377.44 c -0.13,69.49 -40.56,127.69 -103.63,156.86 l -366.9,174.63 c -18.29,9.15 -37.56,19.16 -54.33,29.84 -16.81,10.72 -38.82,-1.25 -38.82,-21.19 l 0.06,-706.97 c 0,-69.49 27.6,-126.12 90.61,-155.42 0,0 82.01,77.73 195.3,97.33 l 278.41,47.48"
         style="fill:#ea1a2d;fill-opacity:1;fill-rule:nonzero;stroke:none"
         id="path18" /><path
         d="m 6235.45,4299.15 c 0,0 0.2,177.69 0,218.24 -0.41,82.53 44.71,131.01 44.71,131.02 -0.01,0 -118.94,56.34 -252.39,32.9 l -643.29,-110 c -25.27,-4.23 -29.85,-38.58 -6.58,-49.28 l 478.9,-227.81 c 61.65,-28.37 130.39,-37.28 197.35,-26.2 l 181.3,31.13"
         style="fill:#1574c2;fill-opacity:1;fill-rule:nonzero;stroke:none"
         id="path20" /><path
         d="m 7599.69,4622.44 -478.9,227.81 c -61.65,28.37 -130.38,37.15 -197.34,26.07 l -124.01,-21.36 c 0,0 0,-100.68 0,-141.23 0,-128.6 -44.72,-208.02 -44.72,-208.02 98.23,-47.06 118.94,-56.34 252.39,-32.91 l 586.01,100.36 c 25.26,4.23 29.84,38.58 6.57,49.28"
         style="fill:#34aae4;fill-opacity:1;fill-rule:nonzero;stroke:none"
         id="path22" /><path
         d="m 6799.76,4288.55 c 0,69.48 -27.6,126.12 -90.59,155.41 0,0 -82.03,-77.73 -195.32,-97.33 l -278.4,-47.48 0.71,-377.43 c 0.12,-69.49 40.54,-127.69 103.62,-156.87 l 366.9,-174.62 c 18.3,-9.15 37.55,-19.16 54.33,-29.84 16.82,-10.71 38.82,1.26 38.82,21.2 l -0.07,706.96"
         style="fill:#e7631a;fill-opacity:1;fill-rule:nonzero;stroke:none"
         id="path24" /><path
         d="m 6235.45,4299.15 c 0,0 0.2,177.69 0,218.24 -0.41,82.53 44.71,131.02 44.71,131.02 l 429.01,-204.45 c 0,0 -82.03,-77.72 -195.32,-97.33 l -278.4,-47.48"
         style="fill:#203566;fill-opacity:1;fill-rule:nonzero;stroke:none"
         id="path26" /><path
         d="m 6799.44,4854.96 c 0,0 0,-100.68 0,-141.23 0,-128.59 -44.72,-208.02 -44.72,-208.02 l -428.99,204.44 c 0,0 82.01,77.73 195.3,97.33 l 278.41,47.48"
         style="fill:#203566;fill-opacity:1;fill-rule:nonzero;stroke:none"
         id="path28" /></g></g></svg>
